<?xml version="1.0" encoding="iso-8859-1"?>
<!-- Uploaded to: SVG Repo, www.svgrepo.com, Generator: SVG Repo Mixer Tools -->
<!DOCTYPE svg PUBLIC "-//W3C//DTD SVG 1.1//EN" "http://www.w3.org/Graphics/SVG/1.1/DTD/svg11.dtd">
<svg fill="#000000" height="800px" width="800px" version="1.1" id="Capa_1" xmlns="http://www.w3.org/2000/svg" xmlns:xlink="http://www.w3.org/1999/xlink" 
	 viewBox="0 0 465 465" xml:space="preserve">
<g>
	<path d="M97.917,126.138h194.167c4.142,0,7.5-3.357,7.5-7.5s-3.358-7.5-7.5-7.5H97.917c-4.142,0-7.5,3.357-7.5,7.5
		S93.774,126.138,97.917,126.138z"/>
	<path d="M404.575,118.477c-0.003-0.135-0.01-0.27-0.02-0.406c-0.009-0.116-0.018-0.23-0.032-0.344
		c-0.015-0.126-0.036-0.252-0.058-0.378c-0.021-0.119-0.042-0.237-0.068-0.354c-0.027-0.119-0.059-0.237-0.091-0.355
		c-0.033-0.119-0.065-0.237-0.104-0.353c-0.038-0.114-0.081-0.227-0.124-0.34c-0.044-0.115-0.089-0.23-0.138-0.343
		c-0.049-0.11-0.102-0.217-0.156-0.325c-0.056-0.112-0.112-0.223-0.174-0.331c-0.058-0.102-0.12-0.202-0.183-0.302
		c-0.069-0.11-0.14-0.219-0.215-0.325c-0.065-0.092-0.134-0.182-0.203-0.272c-0.084-0.108-0.17-0.215-0.26-0.318
		c-0.035-0.041-0.065-0.084-0.101-0.124l-73.064-80.833V7.5c0-4.143-3.358-7.5-7.5-7.5H142.917c-4.142,0-7.5,3.357-7.5,7.5v25.276
		l-73.064,80.833c-1.246,1.379-1.936,3.171-1.936,5.029V457.5c0,4.143,3.358,7.5,7.5,7.5h254.167h75c4.142,0,7.5-3.357,7.5-7.5
		V118.638C404.583,118.583,404.577,118.531,404.575,118.477z M314.583,15v13.163H150.417V15H314.583z M146.247,43.163h168.336V450
		h-33.122V282.605c0-2.982-0.155-5.94-0.431-8.875h1.53c4.142,0,7.5-3.357,7.5-7.5s-3.358-7.5-7.5-7.5h-4.18
		c-2.684-10.172-7.092-19.814-13.124-28.561c-9.423-13.664-22.173-24.304-37.097-31.011v-39.186c0-4.143-3.358-7.5-7.5-7.5
		c-23.057,0-43.649,16.357-53.391,42.032c-18.169,5.003-34.506,15.778-46.351,30.657c-12.839,16.128-19.91,36.521-19.91,57.423
		v76.479l-25.592,16.023V121.525L146.247,43.163z M75.417,392.785l37.072-23.211c0.033-0.021,0.062-0.045,0.094-0.066
		c0.117-0.075,0.229-0.156,0.341-0.238c0.094-0.069,0.188-0.136,0.278-0.208c0.09-0.072,0.175-0.149,0.261-0.225
		c0.102-0.09,0.205-0.179,0.301-0.273c0.067-0.065,0.128-0.135,0.192-0.203c0.104-0.111,0.209-0.221,0.306-0.336
		c0.056-0.067,0.107-0.137,0.16-0.206c0.094-0.121,0.188-0.241,0.274-0.366c0.058-0.084,0.109-0.172,0.163-0.259
		c0.072-0.115,0.145-0.228,0.21-0.346c0.062-0.111,0.115-0.226,0.171-0.34c0.048-0.099,0.099-0.197,0.143-0.297
		c0.057-0.132,0.106-0.268,0.156-0.404c0.033-0.09,0.069-0.178,0.098-0.269c0.044-0.136,0.08-0.276,0.117-0.415
		c0.026-0.098,0.054-0.195,0.076-0.293c0.027-0.125,0.047-0.253,0.069-0.38c0.02-0.12,0.041-0.24,0.055-0.362
		c0.012-0.108,0.019-0.217,0.027-0.326c0.011-0.146,0.02-0.291,0.022-0.437c0-0.036,0.005-0.071,0.005-0.107v-80.63
		c0-36.103,24.112-66.724,58.637-74.466c2.588-0.58,4.676-2.484,5.494-5.007c6-18.522,18.51-31.438,33.021-34.783v35.834
		c0,3.111,1.921,5.899,4.828,7.008c24.704,9.419,42.068,30.673,47.022,56.268c0.03,0.184,0.066,0.366,0.109,0.546
		c0.883,4.743,1.343,9.631,1.343,14.62V450H75.417V392.785z M389.583,450h-60V55.146l50.611,55.992h-28.111
		c-4.142,0-7.5,3.357-7.5,7.5s3.358,7.5,7.5,7.5h37.5V450z"/>
</g>
</svg>