<?xml version="1.0" encoding="iso-8859-1"?>
<!-- Uploaded to: SVG Repo, www.svgrepo.com, Generator: SVG Repo Mixer Tools -->
<svg fill="#000000" version="1.1" id="Capa_1" xmlns="http://www.w3.org/2000/svg" xmlns:xlink="http://www.w3.org/1999/xlink" 
	 viewBox="0 0 242 242" xml:space="preserve">
<g>
	<rect x="21.667" width="198" height="42"/>
	<path d="M218.903,60H23.096L1.59,242H240.41L218.903,60z M171.545,153.836c0,27.915-22.63,50.545-50.545,50.545
		s-50.545-22.63-50.545-50.545c0-3.462,0.35-6.843,1.013-10.109l-7.685-40.954l35.85,5.255c6.492-3.033,13.729-4.737,21.367-4.737
		s14.875,1.704,21.367,4.737l35.85-5.255l-7.685,40.954C171.195,146.994,171.545,150.374,171.545,153.836z"/>
	<path d="M99.554,140.484c-7.559,0-13.7,6.516-13.935,13.516h27.871C113.253,147,107.113,140.484,99.554,140.484z"/>
	<path d="M142.446,140.484c-7.559,0-13.7,6.516-13.935,13.516h27.871C156.146,147,150.005,140.484,142.446,140.484z"/>
</g>
</svg>