<svg width="223" height="156" viewBox="0 0 223 156" fill="none" xmlns="http://www.w3.org/2000/svg">
<path d="M0.201591 28.6846C0.316421 33.9615 -0.0663424 42.363 0.0102109 47.3622C0.144179 55.6941 0.105901 61.2488 0.105901 69.4419C0.105903 119.258 -0.104621 77.7096 0.33556 92.2906C0.507805 98.4354 -0.315145 107.705 1.73266 113.121C4.52685 120.758 10.7851 124.23 14.1152 124.23C22.1341 124.23 30.8038 124.716 39.2821 125.445C50.7651 126.452 62.4203 125.862 74.0756 125.445C93.2139 124.681 113.979 126.105 133.787 125.445C151.012 124.889 191.355 126.938 208.542 123.431C212.159 122.702 217.728 121.973 219.91 117.738C224.771 108.364 222.283 89.5501 222.493 76.08C222.857 54.4863 223.469 50.2089 222.398 28.6846C222.034 21.7413 222.78 11.9859 220.005 8.20179C217.258 5.76143 214.287 4.2553 211.24 3.75807C202.525 1.59038 193.741 0.4539 184.944 0.355836C146.878 -1.10226 84.4868 2.3694 46.325 2.71657C35.4735 2.71657 23.9714 1.29319 12.6606 2.71657C6.7469 3.54977 2.93838 4.90372 0.794882 12.9233C-0.0663426 16.1519 0.163316 25.0394 0.259008 28.5457" fill="#FEC326"/>
<ellipse cx="109.6" cy="100.774" rx="50.1635" ry="8.0048" fill="#EBAB26"/>
<path d="M147.074 99.0816C146.798 99.8797 145.815 100.663 144.893 100.814C120.064 104.899 94.782 104.872 69.959 100.732C69.0372 100.579 68.063 99.7917 67.7949 98.9936C63.1315 85.0559 59.5198 70.9988 56.9577 56.9564C56.8111 56.1498 57.316 55.6617 58.0764 55.8649C90.634 64.5422 124.717 64.5422 157.274 55.8649C158.035 55.6617 158.533 56.1498 158.38 56.9543C155.688 71.0344 151.92 85.125 147.074 99.0837V99.0816Z" fill="#191919"/>
<path d="M107.673 66.2478C93.802 66.2478 80.7484 65.4286 70.9147 63.9412C56.2249 61.7206 54.3416 58.9217 54.3416 56.7325C54.3416 54.5433 56.2249 51.7445 70.9147 49.5238C80.7463 48.0364 93.7999 47.2173 107.673 47.2173C121.545 47.2173 134.597 48.0364 144.431 49.5238C159.12 51.7445 161.004 54.5433 161.004 56.7325C161.004 58.9217 159.12 61.7206 144.431 63.9412C134.599 65.4286 121.545 66.2478 107.673 66.2478ZM57.8778 56.7325C58.4749 57.2919 61.2549 59.1438 72.8211 60.7653C82.3154 62.0977 94.6924 62.8288 107.673 62.8288C120.653 62.8288 133.032 62.0956 142.524 60.7653C154.09 59.1438 156.87 57.2898 157.468 56.7325C156.87 56.1732 154.09 54.3212 142.524 52.6977C133.03 51.3674 120.653 50.6341 107.673 50.6341C94.6924 50.6341 82.3133 51.3674 72.8211 52.6977C61.2549 54.3192 58.4749 56.1732 57.8778 56.7325Z" fill="#191919"/>
<path d="M153.965 70.8215C153.974 71.2177 153.765 71.6203 152.701 72.0039C152.459 72.0911 152.553 72.1682 152.165 72.2543C150.991 72.5151 148.246 72.7909 146.286 73.0114C144.7 73.1899 141.743 73.3781 139.852 73.5093C138.641 73.5933 137.571 73.6615 136.25 73.7217C134.705 73.7915 130.626 73.7136 128.983 73.7532C128.059 73.7754 127.143 73.601 126.247 73.6127C125.21 73.626 124.199 73.8226 123.209 73.8077C121.822 73.7867 120.483 73.7132 119.209 73.6777C117.448 73.6288 115.807 73.6155 114.319 73.5299C113.148 73.4624 112.072 73.3865 111.107 73.3058C109.51 73.1721 108.221 73.1919 107.307 72.9755C106.317 72.7412 105.767 72.2801 105.76 71.9873C105.748 71.5088 105.467 71.2645 107.177 70.8535C107.654 70.7388 108.281 70.4323 109.117 70.3212C110.038 70.1993 111.179 70.1637 112.471 70.1702C113.321 70.1746 114.237 70.23 115.194 70.1751C116.414 70.1048 117.698 69.6602 119.022 69.623C120.602 69.5786 122.231 69.7244 123.83 69.6574C125.573 69.5843 126.716 69.5084 128.309 69.47C128.739 69.4595 133.438 69.3917 133.864 69.4135C135.717 69.5084 135.68 69.5156 137.393 69.636C139.614 69.7918 141.688 69.6125 143.575 69.7466C145.875 69.9098 147.879 69.7252 149.505 69.9283C150.547 70.0584 151.427 70.0063 152.126 70.1545C153.305 70.4044 153.956 70.5009 153.964 70.822L153.965 70.8215Z" fill="#191919"/>
<path d="M110.633 66.8263C110.969 66.2157 111.115 65.5567 111.164 64.8698C111.217 64.1341 111.283 63.3992 111.315 62.6626C111.366 61.4573 111.389 60.2503 111.437 59.0449C111.444 58.8555 111.429 58.675 111.389 58.5014C111.399 58.0015 111.391 57.5012 111.383 57.0017C111.368 56.0515 111.33 55.1013 111.237 54.1552C111.144 53.2055 110.576 47.4617 110.347 46.1057C110.281 45.7173 109.641 44.4554 109.346 44.182C109.305 44.1436 109.266 44.1 109.235 44.0528C108.531 42.9782 107.63 42.0697 106.769 41.1276C106.314 40.6301 105.937 40.0882 105.642 39.4825C105.368 38.9175 105.192 38.3195 104.998 37.7255C104.863 37.3104 104.836 36.8941 104.839 36.4656C104.847 35.6374 105.018 34.8318 105.159 34.0218C105.213 33.7149 105.257 33.4023 105.354 33.108C105.52 32.6008 105.796 32.2131 106.401 32.1263C106.83 32.0645 109.076 31.3175 109.393 31.1996C109.818 31.0417 110.23 30.8491 110.644 30.6617C110.891 30.5498 111.112 30.4049 111.267 30.1654C111.437 29.9042 111.636 29.6619 111.819 29.4099C112.389 28.6293 112.941 27.8403 113.345 26.9543C113.615 26.3616 113.884 26.0506 114.13 25.1651C114.168 25.1073 114.183 25.033 114.201 24.9648C114.376 24.3199 114.132 23.8903 113.484 23.7021C112.941 23.5446 112.398 23.3875 111.835 23.2248C111.731 22.9926 111.478 22.8702 111.4 22.615C111.171 21.8631 111.509 21.064 111.921 20.4434C112.275 19.9091 112.724 19.4443 113.258 19.0866C113.847 18.6924 114.45 18.3161 115.072 17.9793C115.653 17.6656 116.302 17.546 116.957 17.498C117.583 17.4524 118.206 17.5121 118.822 17.6224C119.212 17.6922 119.613 17.7423 119.983 17.8755C121.06 18.264 121.878 18.9929 122.501 19.9402C122.788 20.3779 123.075 20.8237 123.198 21.3451C123.341 21.952 123.493 22.5573 123.606 23.1699C123.683 23.5858 123.858 23.9157 124.208 24.1547C124.932 24.6486 125.696 25.0375 126.591 25.1001C126.661 25.1049 126.73 25.1308 126.8 25.1376C127.249 25.182 127.698 25.2051 128.153 25.1465C128.2 25.0124 128.247 24.9095 128.272 24.8012C128.54 23.6556 128.814 22.5113 129.067 21.3624C129.277 20.4046 129.514 19.4556 129.925 18.5616C130.187 17.9922 130.55 17.5166 131.19 17.3183C131.843 17.1156 132.465 17.2488 133.046 17.5327C134.146 18.0702 134.942 18.9093 135.392 20.0614C135.454 20.2196 135.527 20.3751 135.612 20.5229C136.006 21.213 136.204 21.9669 136.315 22.743C136.402 23.3463 136.448 23.9553 136.503 24.5626C136.593 25.5362 136.705 26.5041 136.591 27.4898C136.462 28.6164 136.413 29.7523 136.317 30.8834C136.232 31.8869 136.126 32.8883 136.041 33.8918C135.955 34.8948 135.843 35.8983 135.814 36.9034C135.773 38.3655 135.796 39.8297 135.794 41.2931C135.794 41.4349 135.799 41.5786 135.824 41.7175C136.014 42.7921 136.209 43.8654 136.402 44.9395C136.46 45.263 136.553 45.5699 136.725 45.8566C137.17 46.5988 137.613 47.3434 138.037 48.0985C138.481 48.8904 138.945 49.6762 139.324 50.5C139.815 51.5696 140.222 52.6773 140.682 53.7623C141.064 54.666 141.441 55.5754 141.648 56.5336C142.088 58.5713 142.49 61.3046 142.534 63.4008C142.536 63.4682 142.561 63.5349 142.584 63.6427C142.719 63.5692 142.841 63.526 142.934 63.4476C143.246 63.1811 143.553 62.9065 143.853 62.6267C144.741 61.8005 145.566 60.5346 145.936 59.1091C146.126 58.054 146.215 57.4624 146.225 56.6645C146.226 56.5793 146.212 56.4937 146.218 56.4093C146.249 55.9845 146.529 55.7729 146.944 55.8605C147.35 55.9461 147.671 56.1743 147.938 56.4803C148.719 57.374 149.248 58.398 149.515 59.5557C149.575 59.815 149.634 60.0746 149.704 60.3811C149.865 60.3012 149.963 60.2418 150.069 60.2026C150.377 60.0872 150.652 60.3064 150.603 60.6246C150.584 60.7506 150.551 60.875 150.539 61.0014C150.434 62.0408 150.388 63.0345 149.972 63.9912C149.758 64.4858 149.541 64.9797 149.328 65.4756C148.79 66.7306 147.839 67.856 146.769 68.7258C146.364 69.0561 145.931 69.3557 145.498 69.6505C144.785 70.1355 143.949 70.5724 143.16 70.8862C142.924 70.9803 142.68 71.0671 142.461 71.1935C141.901 71.5161 141.29 71.4725 140.673 71.63C139.572 71.9118 138.438 71.995 137.31 72.052C136.578 72.0887 135.845 72.1376 135.105 72.0976C133.646 72.0188 132.183 72.0059 130.721 71.9874C129.314 71.9696 127.907 71.9785 126.5 71.9756C126.387 71.9756 126.273 71.9736 126.159 71.9708C125.351 71.9514 124.543 71.9163 123.736 71.9171C123.041 71.9179 122.347 71.9769 121.653 71.9777C121.068 71.9785 120.49 72.0318 120.009 71.6328C119.925 71.5634 119.805 71.5363 119.701 71.4931C119.329 71.3396 118.996 71.0146 118.712 70.7275C118.588 70.6031 118.519 70.4694 118.478 70.2914C118.355 69.7616 118.46 69.2443 118.548 68.7335C118.643 68.1774 118.996 67.7324 119.319 67.2846C119.535 66.9858 119.764 66.6959 119.973 66.3918C120.13 66.1632 120.137 65.9262 119.991 65.6726C119.751 65.2551 119.531 64.8258 119.308 64.3982C118.785 63.3907 118.266 62.3804 117.742 61.3733C117.677 61.2477 117.603 61.1233 117.515 61.0135C117.362 60.8229 117.232 60.8148 116.971 60.9549C116.961 60.9812 116.943 61.0074 116.943 61.0337C116.94 61.2323 116.941 61.4314 116.938 61.6301C116.918 63.5171 117.05 65.4077 116.79 67.2891C116.736 67.6811 116.756 68.0854 116.68 68.4718C116.571 69.0262 116.445 69.5839 116.252 70.1133C116.031 70.7214 115.575 71.1406 114.979 71.4119C114.451 71.6526 113.906 71.7721 113.326 71.7338C113.185 71.7245 113.042 71.7285 112.9 71.7338C112.175 71.7604 111.534 71.5222 110.95 71.1107C109.964 70.4169 109.637 69.3719 110.011 68.2251C110.17 67.7345 110.386 67.2749 110.633 66.8271V66.8263Z" fill="#191919"/>
<path d="M117.417 36.0396C117.162 35.979 116.887 35.973 116.649 35.8752C115.801 35.528 115.02 35.0632 114.338 34.4462C113.991 34.1324 113.692 33.7742 113.548 33.3195C113.171 32.1336 113.172 30.9419 113.593 29.7717C114.001 28.6402 114.734 27.7321 115.648 26.9632C115.959 26.7007 116.313 26.5073 116.699 26.3902C117.527 26.1394 118.378 26.0785 119.214 26.2929C120.239 26.5558 121.127 27.0823 121.773 27.9441C122.505 28.9205 122.881 30.0083 122.688 31.244C122.622 31.6708 122.515 32.0916 122.442 32.5176C122.34 33.1043 122.111 33.6398 121.827 34.1578C121.335 35.0511 120.587 35.6422 119.657 36.0222C119.531 36.0739 119.39 36.0969 119.254 36.1187C118.637 36.2165 118.028 36.1854 117.417 36.0404L117.417 36.0396Z" fill="#FFF3DA"/>
<path d="M127.692 38.1304C127.407 38.0658 127.113 38.0048 126.853 37.8817C126.227 37.5857 125.614 37.2647 125.06 36.8366C123.941 35.9721 123.475 34.8164 123.531 33.439C123.548 33.0122 123.638 32.5765 123.767 32.1678C124.157 30.9346 124.855 29.8948 125.833 29.0448C126.325 28.6171 126.902 28.3615 127.541 28.2824C128.044 28.2202 128.555 28.221 129.061 28.1943C129.588 28.1665 130.066 28.3405 130.522 28.5703C131.639 29.1324 132.351 30.0595 132.817 31.1922C133.013 31.6679 133.114 32.1678 133.045 32.6859C132.973 33.2205 132.887 33.7532 132.81 34.2874C132.705 35.0183 132.421 35.6741 132.023 36.2943C131.296 37.4298 130.31 38.1248 128.936 38.2253C128.512 38.2564 128.102 38.2233 127.692 38.1308L127.692 38.1304Z" fill="#FFF3DA"/>
<path d="M116.63 33.2497C116.721 33.2663 116.811 33.2893 116.902 33.3051C118.007 33.4932 118.81 32.9158 119.325 32.0585C119.664 31.4928 119.797 30.858 119.882 30.2107C119.971 29.5254 119.818 28.8975 119.481 28.2999C119.287 27.9542 119.036 27.6732 118.694 27.4733C118.534 27.38 118.373 27.2883 118.214 27.1938C117.94 27.0311 117.647 26.9709 117.329 26.9948C116.595 27.0497 115.942 27.2831 115.426 27.8286C114.662 28.6366 114.237 29.5872 114.259 30.7106C114.263 30.9371 114.308 31.1774 114.395 31.3854C114.818 32.3856 115.522 33.0462 116.63 33.2497Z" fill="#191919"/>
<path d="M130.113 33.1429C130.237 32.5226 130.295 31.9306 130.105 31.337C129.755 30.248 129.009 29.5962 127.89 29.4097C126.85 29.2364 125.975 29.5651 125.291 30.3828C124.768 31.0063 124.468 31.7206 124.387 32.5262C124.324 33.1513 124.53 33.7155 124.82 34.2521C125.184 34.9253 125.776 35.3287 126.468 35.6061C126.552 35.64 126.648 35.6618 126.739 35.663C127.093 35.6671 127.448 35.6606 127.803 35.6586C128.462 35.6545 128.938 35.2951 129.343 34.8308C129.768 34.3426 129.991 33.7554 130.114 33.1429H130.113Z" fill="#191919"/>
<path d="M154.915 66.6767C155.257 66.6965 155.478 66.5592 155.633 66.3197C155.771 66.1057 155.9 65.8832 156.008 65.653C156.304 65.0231 156.562 64.377 156.725 63.6978C156.764 63.5334 156.795 63.3626 156.796 63.1942C156.798 62.994 156.657 62.847 156.466 62.8042C156.299 62.767 156.138 62.8361 156.041 63.0133C155.981 63.124 155.943 63.2492 155.912 63.3719C155.692 64.2401 155.438 65.0962 155.033 65.8998C154.914 66.1368 154.893 66.3859 154.915 66.6763L154.915 66.6767Z" fill="#191919"/>
<path d="M152.469 66.5475C152.794 66.598 152.979 66.3517 153.108 66.0747C153.419 65.4064 153.722 64.7296 153.987 64.0334C154.215 63.4342 154.399 62.8091 154.578 62.186C154.718 61.6958 154.461 61.3017 154.096 61.4297C153.868 61.51 153.751 61.7555 153.666 62.0245C153.496 62.5619 153.333 63.1026 153.153 63.6353C152.946 64.2466 152.727 64.8527 152.505 65.4572C152.373 65.8178 152.256 66.17 152.469 66.5471V66.5475Z" fill="#191919"/>
<path d="M169.424 52.7831C169.424 51.1428 168.663 49.6805 167.473 48.7273C167.469 48.7252 167.467 48.721 167.463 48.7189C167.396 48.6644 167.327 48.6121 167.255 48.5618C167.245 48.5555 167.236 48.5471 167.226 48.5408C167.161 48.4948 167.094 48.4487 167.025 48.4068C167.012 48.3984 167.002 48.3921 166.989 48.3837C166.92 48.3397 166.851 48.2999 166.782 48.2601C166.771 48.2538 166.761 48.2475 166.75 48.2413C166.671 48.1973 166.589 48.1533 166.507 48.1135C166.338 48.0318 166.164 47.9564 165.986 47.8935C165.969 47.8872 165.954 47.883 165.938 47.8767C165.868 47.8516 165.797 47.8286 165.726 47.8076C165.699 47.7992 165.672 47.7929 165.644 47.7846C165.584 47.7678 165.523 47.751 165.46 47.7364C165.429 47.728 165.395 47.7217 165.364 47.7133C165.305 47.7008 165.246 47.6882 165.188 47.6777C165.154 47.6714 165.118 47.6652 165.085 47.6589C165.026 47.6484 164.966 47.64 164.907 47.6337C164.871 47.6295 164.838 47.6253 164.802 47.6212C164.739 47.6149 164.674 47.6086 164.609 47.6044C164.578 47.6023 164.549 47.5981 164.517 47.5981C164.423 47.5939 164.327 47.5897 164.23 47.5897C162.527 47.5897 161.017 48.4089 160.07 49.6742C160.118 49.3704 160.145 49.0562 160.145 48.7378C160.145 47.3509 159.661 46.0793 158.855 45.0758C158.589 44.7469 158.289 44.4473 157.96 44.1834C157.952 44.1771 157.943 44.1687 157.935 44.1624C157.864 44.1058 157.79 44.0514 157.717 43.9969C157.702 43.9864 157.688 43.976 157.673 43.9655C157.604 43.9152 157.533 43.8691 157.461 43.823C157.445 43.8125 157.428 43.8021 157.411 43.7895C157.338 43.7434 157.265 43.6994 157.189 43.6575C157.174 43.6491 157.158 43.6387 157.143 43.6303C157.059 43.5842 156.973 43.5381 156.887 43.4962C156.881 43.4941 156.875 43.4899 156.869 43.4857C156.68 43.3936 156.485 43.3119 156.286 43.2406C156.265 43.2322 156.242 43.226 156.221 43.2176C156.146 43.1924 156.07 43.1673 155.995 43.1443C155.961 43.1338 155.93 43.1254 155.897 43.117C155.829 43.0982 155.762 43.0793 155.695 43.0647C155.658 43.0563 155.62 43.0479 155.582 43.0395C155.517 43.0248 155.452 43.0123 155.387 42.9997C155.348 42.9913 155.308 42.985 155.268 42.9788C155.203 42.9683 155.136 42.9578 155.069 42.9494C155.029 42.9452 154.992 42.939 154.952 42.9348C154.88 42.9264 154.807 42.9201 154.734 42.9159C154.7 42.9138 154.667 42.9096 154.631 42.9075C154.524 42.9012 154.415 42.8991 154.309 42.8991C152.228 42.8991 150.404 43.9864 149.369 45.6247C149.077 45.2832 148.753 44.969 148.403 44.6882C148.395 44.6819 148.388 44.6757 148.38 44.6694C148.29 44.5982 148.198 44.5269 148.103 44.4599C148.087 44.4494 148.072 44.4368 148.055 44.4264C147.967 44.3635 147.879 44.3049 147.787 44.2462C147.768 44.2336 147.749 44.2211 147.728 44.2085C147.638 44.1519 147.546 44.0954 147.452 44.043C147.433 44.0325 147.416 44.022 147.399 44.0116C147.295 43.9529 147.19 43.8984 147.081 43.844C147.075 43.8398 147.068 43.8377 147.062 43.8335C146.832 43.7204 146.593 43.6198 146.348 43.5318C146.321 43.5213 146.295 43.5151 146.268 43.5046C146.176 43.4732 146.084 43.4417 145.99 43.4145C145.95 43.4019 145.908 43.3915 145.868 43.3789C145.786 43.3558 145.705 43.3349 145.623 43.3139C145.577 43.3035 145.531 43.293 145.483 43.2825C145.403 43.2658 145.323 43.249 145.244 43.2343C145.196 43.226 145.145 43.2155 145.097 43.2071C145.017 43.1945 144.936 43.182 144.854 43.1715C144.806 43.1652 144.758 43.1589 144.709 43.1526C144.621 43.1422 144.534 43.1359 144.443 43.1296C144.402 43.1275 144.36 43.1233 144.318 43.1191C144.186 43.1128 144.054 43.1086 143.922 43.1086C139.962 43.1086 136.753 46.3181 136.753 50.2755C136.753 50.4095 136.757 50.5415 136.763 50.6714C136.765 50.7133 136.77 50.7552 136.774 50.7971C136.78 50.8851 136.786 50.9752 136.797 51.0632C136.803 51.1113 136.809 51.1595 136.816 51.2077C136.826 51.2894 136.837 51.3711 136.851 51.4507C136.86 51.4989 136.868 51.5492 136.876 51.5974C136.891 51.677 136.908 51.7566 136.925 51.8362C136.935 51.8823 136.946 51.9284 136.956 51.9766C136.977 52.0604 136.998 52.1421 137.021 52.2238C137.032 52.2636 137.044 52.3055 137.055 52.3453C137.082 52.4395 137.113 52.5317 137.145 52.6239C137.153 52.6511 137.161 52.6784 137.172 52.7035C137.26 52.9486 137.36 53.1853 137.474 53.4158C137.478 53.4263 137.484 53.4346 137.488 53.443C137.541 53.5478 137.593 53.6504 137.65 53.751C137.662 53.7719 137.673 53.7929 137.685 53.8138C137.735 53.9039 137.79 53.9919 137.844 54.0799C137.859 54.1029 137.874 54.126 137.888 54.1469C137.943 54.2328 138.001 54.3166 138.06 54.4004C138.075 54.4214 138.089 54.4423 138.104 54.4612C138.167 54.5491 138.232 54.6329 138.299 54.7188C138.309 54.7335 138.322 54.7482 138.332 54.7607C138.343 54.7733 138.351 54.7859 138.36 54.7963C137.746 55.6113 137.344 56.5938 137.231 57.6601C137.063 57.3501 136.866 57.0568 136.644 56.7824C136.644 56.7824 136.644 56.7824 136.644 56.7803C136.38 56.4535 136.082 56.156 135.756 55.8941C135.747 55.8878 135.739 55.8815 135.731 55.8752C135.659 55.8187 135.586 55.7642 135.513 55.7097C135.5 55.6993 135.485 55.6909 135.473 55.6804C135.402 55.6301 135.33 55.582 135.257 55.5359C135.242 55.5254 135.226 55.517 135.211 55.5065C135.138 55.4604 135.062 55.4144 134.985 55.3725C134.972 55.3641 134.958 55.3578 134.945 55.3494C134.857 55.3012 134.769 55.2551 134.681 55.2112C134.679 55.2112 134.675 55.2091 134.673 55.207C134.484 55.1148 134.289 55.0331 134.09 54.9619C134.071 54.9556 134.055 54.9493 134.036 54.943C133.958 54.9158 133.879 54.8906 133.799 54.8655C133.768 54.8571 133.738 54.8487 133.707 54.8403C133.638 54.8215 133.571 54.8026 133.502 54.7859C133.466 54.7775 133.43 54.7691 133.393 54.7607C133.328 54.7461 133.261 54.7335 133.196 54.7209C133.158 54.7146 133.118 54.7063 133.08 54.7C133.013 54.6895 132.948 54.679 132.881 54.6707C132.844 54.6665 132.804 54.6602 132.766 54.656C132.695 54.6476 132.622 54.6434 132.55 54.6371C132.517 54.635 132.483 54.6308 132.45 54.6287C132.343 54.6225 132.236 54.6204 132.129 54.6204C130.709 54.6204 129.408 55.1315 128.4 55.9779C128.252 55.7328 128.088 55.5002 127.908 55.2782C127.908 55.2782 127.908 55.2782 127.906 55.2761C127.619 54.922 127.296 54.5973 126.94 54.3124C126.928 54.3019 126.915 54.2915 126.902 54.2831C126.829 54.2244 126.754 54.1679 126.676 54.1113C126.657 54.0987 126.638 54.0841 126.62 54.0715C126.546 54.0191 126.473 53.9709 126.398 53.9207C126.377 53.9081 126.356 53.8934 126.337 53.8809C126.259 53.8327 126.182 53.7866 126.102 53.7405C126.083 53.73 126.064 53.7195 126.046 53.707C125.956 53.6567 125.865 53.6106 125.773 53.5645C125.765 53.5603 125.756 53.5561 125.748 53.552C125.545 53.4514 125.333 53.3634 125.118 53.2859C125.094 53.2775 125.069 53.2691 125.046 53.2628C124.965 53.2335 124.883 53.2084 124.799 53.1832C124.763 53.1728 124.728 53.1623 124.692 53.1539C124.619 53.133 124.548 53.1141 124.474 53.0953C124.435 53.0848 124.393 53.0764 124.353 53.068C124.282 53.0534 124.213 53.0387 124.141 53.024C124.099 53.0156 124.055 53.0073 124.013 53.001C123.942 52.9884 123.871 52.98 123.798 52.9696C123.756 52.9633 123.712 52.9591 123.67 52.9528C123.592 52.9444 123.513 52.9381 123.435 52.9318C123.398 52.9298 123.36 52.9256 123.324 52.9235C123.209 52.9172 123.092 52.913 122.974 52.913C120.079 52.913 117.639 54.8571 116.88 57.5093C116.44 56.686 115.839 55.9632 115.116 55.385C115.108 55.3787 115.097 55.3704 115.089 55.3641C115.003 55.297 114.917 55.23 114.829 55.1672C114.812 55.1546 114.798 55.1441 114.781 55.1336C114.697 55.075 114.613 55.0184 114.528 54.9639C114.509 54.9514 114.49 54.9388 114.471 54.9283C114.385 54.8739 114.295 54.8215 114.207 54.7712C114.19 54.7607 114.174 54.7524 114.157 54.7419C114.056 54.6853 113.954 54.6329 113.851 54.5806C113.845 54.5785 113.84 54.5743 113.834 54.5722C113.612 54.4633 113.384 54.3669 113.149 54.2831C113.126 54.2747 113.103 54.2684 113.08 54.26C112.99 54.2286 112.898 54.1993 112.806 54.17C112.768 54.1595 112.73 54.149 112.694 54.1385C112.615 54.1155 112.535 54.0945 112.454 54.0757C112.41 54.0652 112.368 54.0547 112.324 54.0464C112.246 54.0296 112.171 54.0128 112.093 53.9982C112.047 53.9898 112.001 53.9814 111.955 53.973C111.877 53.9605 111.8 53.95 111.72 53.9395C111.674 53.9332 111.628 53.9269 111.582 53.9228C111.498 53.9144 111.412 53.906 111.326 53.8997C111.287 53.8976 111.247 53.8934 111.207 53.8913C111.081 53.885 110.956 53.8809 110.828 53.8809C107.53 53.8809 104.778 56.2062 104.118 59.3068C104.118 59.3068 104.114 59.3068 104.111 59.3068C104.034 59.29 103.956 59.2732 103.879 59.2586C103.833 59.2502 103.787 59.2418 103.743 59.2334C103.665 59.2209 103.586 59.2104 103.508 59.1999C103.462 59.1936 103.418 59.1874 103.372 59.1832C103.359 59.1832 103.347 59.179 103.332 59.179C103.366 58.9276 103.382 58.672 103.382 58.4101C103.382 56.5352 102.513 54.8634 101.156 53.774C101.147 53.7677 101.141 53.7614 101.132 53.7552C101.059 53.6965 100.984 53.6399 100.908 53.5855C100.894 53.575 100.879 53.5645 100.864 53.554C100.793 53.5038 100.722 53.4556 100.649 53.4095C100.632 53.399 100.613 53.3864 100.596 53.376C100.523 53.3299 100.45 53.2859 100.374 53.244C100.357 53.2335 100.341 53.2251 100.324 53.2147C100.24 53.1686 100.156 53.1246 100.07 53.0806C100.062 53.0764 100.054 53.0722 100.045 53.068C99.8545 52.9737 99.6576 52.892 99.4544 52.8187C99.4314 52.8103 99.4062 52.802 99.3832 52.7957C99.3078 52.7705 99.2323 52.7454 99.1569 52.7224C99.1234 52.7119 99.0878 52.7035 99.0543 52.693C98.9872 52.6742 98.9202 52.6553 98.8532 52.6406C98.8134 52.6302 98.7756 52.6218 98.7358 52.6134C98.6709 52.5987 98.606 52.5862 98.5389 52.5736C98.4991 52.5652 98.4572 52.5589 98.4174 52.5527C98.3504 52.5422 98.2833 52.5317 98.2163 52.5233C98.1765 52.517 98.1346 52.5129 98.0948 52.5087C98.0215 52.5003 97.9481 52.494 97.8748 52.4898C97.8392 52.4877 97.8036 52.4835 97.768 52.4814C97.659 52.4751 97.5501 52.471 97.4391 52.471C95.782 52.471 94.2841 53.1497 93.2052 54.2433C92.826 53.5478 92.3127 52.936 91.6989 52.4437C91.6926 52.4395 91.6863 52.4332 91.6801 52.4291C91.6046 52.3683 91.5292 52.3117 91.4496 52.2552C91.437 52.2468 91.4245 52.2384 91.4119 52.2279C91.3386 52.1756 91.2632 52.1253 91.1877 52.0771C91.1731 52.0687 91.1584 52.0583 91.1437 52.0499C91.0662 52.0017 90.9887 51.9535 90.907 51.9095C90.8944 51.9032 90.8819 51.8948 90.8693 51.8886C90.7792 51.8383 90.687 51.7901 90.5928 51.744C90.5928 51.744 90.5907 51.744 90.5886 51.744C90.3959 51.6497 90.1968 51.5659 89.9915 51.4926C89.9748 51.4863 89.9559 51.48 89.9391 51.4738C89.8595 51.4465 89.7778 51.4193 89.6961 51.3942C89.6647 51.3858 89.6333 51.3774 89.6019 51.3669C89.5327 51.3481 89.4615 51.3292 89.3903 51.3104C89.3547 51.302 89.317 51.2936 89.2792 51.2852C89.2122 51.2706 89.1452 51.2559 89.076 51.2433C89.0362 51.237 88.9985 51.2287 88.9587 51.2224C88.8917 51.2119 88.8225 51.2014 88.7534 51.193C88.7136 51.1888 88.6738 51.1826 88.6361 51.1784C88.5628 51.17 88.4894 51.1637 88.4161 51.1595C88.3805 51.1574 88.347 51.1532 88.3114 51.1511C88.2024 51.1449 88.0935 51.1407 87.9825 51.1407C87.8023 51.1407 87.6242 51.149 87.4462 51.1658C87.53 50.6986 87.5781 50.2168 87.5781 49.7266C87.5781 47.1896 86.4008 44.9271 84.5656 43.4543C84.5551 43.4459 84.5447 43.4375 84.5342 43.4292C84.4336 43.3496 84.3331 43.2741 84.2304 43.1987C84.2116 43.1841 84.1906 43.1715 84.1718 43.1568C84.0754 43.0877 83.9769 43.0227 83.8785 42.9578C83.8554 42.9431 83.8324 42.9285 83.8093 42.9138C83.7088 42.851 83.6082 42.7902 83.5035 42.7316C83.4825 42.719 83.4616 42.7064 83.4385 42.6938C83.3233 42.6289 83.206 42.5681 83.0887 42.5095C83.0803 42.5053 83.0698 42.499 83.0614 42.4948C82.8017 42.3691 82.5356 42.256 82.2612 42.1575C82.2318 42.1471 82.2004 42.1366 82.1711 42.1261C82.0684 42.0905 81.9637 42.057 81.8589 42.0256C81.8128 42.0109 81.7668 42.0004 81.7228 41.9858C81.6306 41.9606 81.5405 41.9355 81.4462 41.9124C81.3939 41.8999 81.3415 41.8873 81.2891 41.8768C81.2011 41.858 81.111 41.8391 81.021 41.8223C80.9665 41.8119 80.912 41.8014 80.8555 41.793C80.7654 41.7784 80.6753 41.7658 80.5831 41.7532C80.5286 41.7469 80.4742 41.7385 80.4197 41.7323C80.3212 41.7218 80.2207 41.7134 80.1222 41.7071C80.074 41.7029 80.0279 41.6987 79.9798 41.6967C79.8331 41.6883 79.6844 41.6841 79.5335 41.6841C75.5531 41.6841 72.2473 44.5793 71.6063 48.3774C71.424 48.1805 71.225 47.9982 71.0155 47.8286C71.005 47.8202 70.9924 47.8097 70.982 47.8013C70.917 47.749 70.85 47.6987 70.7829 47.6505C70.7662 47.6379 70.7494 47.6274 70.7327 47.6149C70.6677 47.5688 70.6049 47.5269 70.5378 47.4829C70.519 47.4703 70.5001 47.4578 70.4813 47.4473C70.4142 47.4054 70.3472 47.3656 70.2781 47.3258C70.2613 47.3153 70.2445 47.3048 70.2257 47.2964C70.1482 47.2524 70.0686 47.2126 69.989 47.1728C69.9806 47.1687 69.9722 47.1645 69.9638 47.1603C69.7836 47.0723 69.5993 46.9948 69.4087 46.9256C69.3877 46.9173 69.3647 46.911 69.3437 46.9047C69.2725 46.8795 69.2013 46.8565 69.1279 46.8335C69.0965 46.823 69.0651 46.8146 69.0337 46.8062C68.9708 46.7874 68.9059 46.7706 68.8409 46.7559C68.8053 46.7476 68.7697 46.7392 68.7341 46.7308C68.6712 46.7161 68.6105 46.7036 68.5476 46.6931C68.5099 46.6868 68.4722 46.6784 68.4345 46.6721C68.3717 46.6617 68.3088 46.6533 68.2439 46.6449C68.2062 46.6407 68.1684 46.6344 68.1307 46.6302C68.0616 46.6219 67.9925 46.6177 67.9233 46.6114C67.8898 46.6093 67.8584 46.6051 67.8249 46.603C67.7222 46.5967 67.6196 46.5946 67.5148 46.5946C64.429 46.5946 61.9255 49.096 61.9255 52.184C61.9255 52.2887 61.9297 52.3914 61.9339 52.494C61.9339 52.5275 61.9381 52.561 61.9423 52.5946C61.9464 52.6637 61.9527 52.7328 61.9611 52.7999C61.9653 52.8376 61.9716 52.8753 61.9758 52.913C61.9842 52.9758 61.9925 53.0387 62.003 53.1015C62.0093 53.1392 62.0156 53.179 62.024 53.2168C62.024 53.223 62.024 53.2272 62.0261 53.2335C62.0219 53.2293 62.0156 53.2251 62.0114 53.221C62.0051 53.2168 62.0009 53.2126 61.9946 53.2084C61.9297 53.156 61.8626 53.1057 61.7935 53.0554C61.783 53.0471 61.7705 53.0387 61.76 53.0324C61.6951 52.9863 61.6301 52.9423 61.5652 52.9004C61.5526 52.892 61.5379 52.8837 61.5254 52.8753C61.4583 52.8334 61.3913 52.7936 61.3222 52.7538C61.3096 52.7475 61.297 52.7391 61.2865 52.7328C61.209 52.6888 61.1315 52.649 61.0519 52.6092C61.0477 52.6092 61.0456 52.605 61.0414 52.605C60.8738 52.5233 60.7 52.45 60.5219 52.3851C60.5051 52.3788 60.4863 52.3725 60.4695 52.3662C60.4004 52.3432 60.3312 52.3201 60.2621 52.2992C60.2349 52.2908 60.2055 52.2824 60.1783 52.2761C60.1176 52.2594 60.0568 52.2426 59.996 52.2279C59.9625 52.2196 59.9311 52.2133 59.8976 52.2049C59.8389 52.1923 59.7803 52.1798 59.7216 52.1693C59.686 52.163 59.6525 52.1567 59.6169 52.1504C59.5582 52.14 59.4995 52.1316 59.4388 52.1253C59.4053 52.1211 59.3697 52.1169 59.334 52.1127C59.2691 52.1064 59.2042 52.1002 59.1392 52.096C59.1099 52.0939 59.0785 52.0918 59.0491 52.0897C58.9549 52.0855 58.8585 52.0813 58.7621 52.0813C55.892 52.0813 53.5667 54.4067 53.5667 57.2768C53.5667 57.3731 53.5687 57.4695 53.575 57.5638C53.575 57.5952 53.5792 57.6245 53.5813 57.6539C53.5855 57.7188 53.5918 57.7837 53.5981 57.8466C53.6023 57.8822 53.6065 57.9157 53.6106 57.9513C53.619 58.01 53.6274 58.0707 53.6358 58.1294C53.6421 58.165 53.6484 58.1985 53.6546 58.2342C53.6651 58.2928 53.6777 58.3515 53.6903 58.408C53.6986 58.4416 53.7049 58.473 53.7133 58.5065C53.728 58.5672 53.7447 58.628 53.7615 58.6888C53.7699 58.716 53.7761 58.7453 53.7845 58.7726C53.8055 58.8417 53.8285 58.9129 53.8516 58.98C53.8578 58.9967 53.862 59.0156 53.8683 59.0323C53.9333 59.2104 54.0066 59.3843 54.0883 59.554C54.0883 59.554 54.0883 59.554 54.0883 59.5561C54.1281 59.6378 54.17 59.7195 54.2161 59.7991C54.2224 59.8096 54.2287 59.82 54.2328 59.8284C54.2726 59.8996 54.3145 59.9688 54.3585 60.0379C54.3648 60.0484 54.3732 60.0609 54.3795 60.0714C54.4235 60.1406 54.4696 60.2076 54.5157 60.2746C54.5219 60.283 54.5282 60.2914 54.5345 60.3019C54.5848 60.3731 54.6393 60.4422 54.6937 60.5114C54.6958 60.5135 54.6979 60.5176 54.7 60.5197C55.3976 61.3912 56.3697 62.0323 57.4842 62.313C57.1343 63.2013 56.9395 64.167 56.9395 65.1789C56.9395 65.3235 56.9437 65.468 56.9521 65.6126C56.9542 65.6586 56.9584 65.7047 56.9626 65.7508C56.9688 65.8472 56.9772 65.9456 56.9877 66.0399C56.994 66.0923 57.0003 66.1447 57.0087 66.197C57.0212 66.285 57.0317 66.3751 57.0464 66.4631C57.0547 66.5155 57.0652 66.5699 57.0757 66.6223C57.0924 66.7103 57.1092 66.7962 57.1281 66.8842C57.1385 66.9345 57.1511 66.9847 57.1637 67.035C57.1867 67.1251 57.2098 67.2152 57.2349 67.3053C57.2475 67.3493 57.26 67.3933 57.2726 67.4373C57.304 67.5399 57.3376 67.6426 57.3732 67.7431C57.3836 67.7703 57.392 67.7997 57.4025 67.8269C57.4989 68.0951 57.6099 68.3548 57.7314 68.6083C57.7335 68.6146 57.7377 68.6209 57.7398 68.6251C57.7984 68.7445 57.8592 68.8597 57.9241 68.9749C57.9346 68.9938 57.9451 69.0126 57.9556 69.0315C58.0142 69.1342 58.075 69.2347 58.1378 69.3353C58.1504 69.3562 58.163 69.3751 58.1776 69.396C58.2405 69.4945 58.3075 69.593 58.3746 69.6893C58.3871 69.7061 58.3976 69.7228 58.4102 69.7396C58.4835 69.8422 58.561 69.9428 58.6385 70.0413C58.6448 70.0496 58.6511 70.058 58.6595 70.0664C60.0924 71.8513 62.2921 72.9972 64.76 72.9972C68.4806 72.9972 71.5916 70.3974 72.3814 66.9156C73.3199 67.299 74.3464 67.5127 75.4253 67.5127C76.7808 67.5127 78.0587 67.1754 79.1774 66.5825C79.1795 66.6056 79.1816 66.6265 79.1858 66.6496C79.19 66.6894 79.1963 66.7292 79.2004 66.769C79.2088 66.836 79.2193 66.903 79.2298 66.9701C79.2361 67.0099 79.2444 67.0518 79.2507 67.0916C79.2633 67.1586 79.2759 67.2236 79.2905 67.2906C79.2989 67.3283 79.3073 67.3681 79.3178 67.4058C79.3345 67.475 79.3534 67.542 79.3722 67.6111C79.3827 67.6446 79.3911 67.6782 79.4016 67.7117C79.4246 67.7892 79.4497 67.8667 79.477 67.9442C79.4854 67.9652 79.4916 67.9882 79.4979 68.0092C79.5712 68.2124 79.655 68.4093 79.7493 68.602C79.7514 68.6062 79.7556 68.6125 79.7577 68.6167C79.8017 68.7068 79.8478 68.7948 79.896 68.8807C79.9043 68.8953 79.9127 68.91 79.9211 68.9247C79.9651 69.0022 80.0112 69.0797 80.0594 69.1551C80.0698 69.1719 80.0803 69.1865 80.0887 69.2012C80.1369 69.2766 80.1872 69.3499 80.2395 69.4233C80.2479 69.4358 80.2584 69.4484 80.2668 69.4631C80.3233 69.5406 80.382 69.6181 80.4407 69.6935C80.4448 69.6998 80.449 69.7061 80.4553 69.7124C81.5447 71.0699 83.2144 71.9393 85.0914 71.9393C86.3421 71.9393 87.5006 71.5517 88.458 70.8918C88.4748 70.9295 88.4936 70.9672 88.5104 71.0049C88.5104 71.007 88.5125 71.0112 88.5146 71.0133C88.5607 71.1055 88.6068 71.1956 88.657 71.2857C88.6633 71.2982 88.6717 71.3108 88.6801 71.3234C88.7262 71.403 88.7723 71.4826 88.8204 71.558C88.8288 71.5727 88.8393 71.5873 88.8477 71.5999C88.898 71.6774 88.9482 71.7528 89.0006 71.8283C89.009 71.8387 89.0174 71.8513 89.0258 71.8618C89.0844 71.9414 89.1431 72.021 89.2038 72.0985C89.208 72.1027 89.2101 72.1069 89.2143 72.1111C90.3037 73.4707 91.9775 74.3401 93.8546 74.3401C95.3776 74.3401 96.7687 73.7661 97.8203 72.8234C97.6988 73.3576 97.6339 73.9148 97.6339 74.4867C97.6339 74.6271 97.6381 74.7654 97.6465 74.9036C97.6486 74.9476 97.6528 74.9916 97.6569 75.0356C97.6632 75.1299 97.6716 75.2221 97.6821 75.3163C97.6884 75.3666 97.6946 75.4169 97.7009 75.4672C97.7114 75.5531 97.724 75.639 97.7386 75.7228C97.747 75.773 97.7554 75.8233 97.7659 75.8736C97.7826 75.9595 97.7994 76.0433 97.8183 76.1271C97.8287 76.1753 97.8392 76.2214 97.8518 76.2695C97.8727 76.3596 97.8979 76.4476 97.9209 76.5356C97.9314 76.5754 97.9439 76.6152 97.9544 76.655C97.9858 76.7577 98.0194 76.8582 98.0529 76.9588C98.0613 76.9818 98.0696 77.007 98.078 77.03C98.1702 77.2877 98.277 77.5412 98.3965 77.7842C98.4551 77.9036 98.518 78.0209 98.5808 78.1382C98.5892 78.1529 98.5976 78.1655 98.606 78.1801C98.6646 78.2828 98.7254 78.3854 98.7882 78.486C98.7987 78.5028 98.8092 78.5174 98.8196 78.5342C98.8825 78.6347 98.9495 78.7311 99.0187 78.8275C99.027 78.84 99.0375 78.8526 99.0459 78.8652C99.1213 78.9678 99.1967 79.0705 99.2763 79.1689C99.2784 79.1731 99.2826 79.1752 99.2847 79.1794C100.663 80.8994 102.779 82.0013 105.155 82.0013C109.307 82.0013 112.671 78.6347 112.671 74.4826C112.671 74.403 112.667 74.3254 112.665 74.2458C115.014 74.1474 117.029 72.7731 118.041 70.7975C118.948 71.3841 120.029 71.7277 121.189 71.7277C121.879 71.7277 122.539 71.6062 123.152 71.3862C123.167 71.4407 123.184 71.4952 123.199 71.5496C123.211 71.5936 123.224 71.6397 123.236 71.6837C123.268 71.7905 123.303 71.8953 123.339 72C123.349 72.0294 123.358 72.0566 123.368 72.0859C123.467 72.3604 123.58 72.6285 123.708 72.8883C123.712 72.8946 123.714 72.903 123.718 72.9093C123.777 73.0308 123.84 73.1502 123.907 73.2675C123.917 73.2884 123.93 73.3073 123.942 73.3282C124.001 73.433 124.064 73.5356 124.127 73.6383C124.141 73.6613 124.156 73.6823 124.169 73.7053C124.233 73.8059 124.3 73.9044 124.37 74.0028C124.382 74.0217 124.397 74.0405 124.409 74.0594C124.485 74.1641 124.562 74.2647 124.642 74.3652C124.65 74.3757 124.657 74.3862 124.665 74.3946C126.14 76.2297 128.4 77.4071 130.937 77.4071C134.203 77.4071 137.013 75.4588 138.272 72.6641C138.578 72.7144 138.89 72.7396 139.208 72.7396C142.413 72.7396 145.011 70.1418 145.011 66.9387C145.011 65.8556 144.714 64.8437 144.196 63.9743C144.548 63.901 144.885 63.7962 145.21 63.6622C145.256 63.7711 145.307 63.8779 145.357 63.9827C145.359 63.9869 145.361 63.9911 145.363 63.9953C145.415 64.1 145.47 64.2027 145.527 64.3053C145.535 64.32 145.545 64.3367 145.554 64.3514C145.606 64.4415 145.659 64.5316 145.715 64.6216C145.726 64.6384 145.736 64.6552 145.749 64.6719C145.805 64.7599 145.864 64.8458 145.925 64.9317C145.935 64.9464 145.943 64.9589 145.954 64.9736C146.019 65.0658 146.088 65.1559 146.157 65.2438C146.161 65.2501 146.165 65.2543 146.17 65.2606C147.425 66.8255 149.354 67.829 151.516 67.829C154.359 67.829 156.797 66.0965 157.834 63.6307C158.67 64.2068 159.684 64.5462 160.778 64.5462C163.648 64.5462 165.973 62.2208 165.973 59.3508C165.973 58.7998 165.887 58.2698 165.728 57.7733C167.871 57.1322 169.434 55.1462 169.434 52.7957L169.424 52.7831ZM65.3256 57.371C65.2795 57.3668 65.2355 57.3627 65.1894 57.3606C65.047 57.3522 64.9024 57.348 64.7558 57.348C64.4813 57.348 64.2111 57.3627 63.945 57.3899C63.945 57.348 63.9492 57.304 63.9492 57.2621C63.9492 56.9751 63.9262 56.6965 63.8801 56.422C64.3556 56.8264 64.8982 57.1532 65.4911 57.3836C65.4366 57.3794 65.3801 57.3752 65.3256 57.371ZM67.5379 57.8592C67.4918 57.8424 67.4478 57.8235 67.4017 57.8068C67.3766 57.7984 67.3493 57.79 67.3221 57.7796C67.2949 57.7691 67.2655 57.7607 67.2383 57.7502C67.3263 57.7544 67.4164 57.7565 67.5064 57.7565C67.5253 57.7565 67.5421 57.7565 67.5609 57.7565C67.5546 57.79 67.5462 57.8235 67.5379 57.8571V57.8592ZM137.859 61.2802C137.872 61.2006 137.88 61.1231 137.888 61.0414C137.899 61.0623 137.911 61.0812 137.922 61.1021C137.928 61.1126 137.934 61.1252 137.941 61.1357C137.962 61.1734 137.983 61.209 138.004 61.2467C137.953 61.2572 137.905 61.2697 137.857 61.2802H137.859ZM157.533 55.2719C157.818 54.6539 157.985 53.9688 158.006 53.2482C158.413 52.913 158.773 52.5233 159.077 52.0918C159.047 52.318 159.031 52.5485 159.031 52.781C159.031 52.8774 159.033 52.9737 159.039 53.068C159.039 53.0994 159.043 53.1288 159.045 53.1602C159.049 53.2251 159.056 53.288 159.062 53.3529C159.066 53.3885 159.07 53.4221 159.075 53.4577C159.083 53.5163 159.091 53.575 159.1 53.6336C159.106 53.6693 159.112 53.7049 159.119 53.7405C159.129 53.7992 159.142 53.8557 159.154 53.9123C159.163 53.9458 159.169 53.9793 159.177 54.0128C159.192 54.0736 159.209 54.1322 159.223 54.1909C159.232 54.2202 159.24 54.2496 159.248 54.2789C159.257 54.304 159.265 54.3313 159.271 54.3564C158.63 54.5491 158.04 54.8613 157.528 55.2677L157.533 55.2719Z" fill="#FFF3DA"/>
<ellipse cx="93.7893" cy="52.7871" rx="4.81838" ry="4.81838" fill="#FFF3DA"/>
<ellipse cx="66.9744" cy="58.0244" rx="4.81838" ry="4.81838" fill="#FFF3DA"/>
<ellipse cx="156.219" cy="53.8345" rx="4.81838" ry="4.81838" fill="#FFF3DA"/>
<ellipse cx="102.798" cy="51.5303" rx="4.81838" ry="4.81838" fill="#FFF3DA"/>
<ellipse cx="104.638" cy="58.6533" rx="6.0298" ry="6.02979" fill="#FFF3DA"/>
<ellipse cx="110.13" cy="52.5775" rx="3.56141" ry="3.56141" fill="#FFF3DA"/>
<ellipse cx="121.652" cy="53.2059" rx="3.56141" ry="3.56141" fill="#FFF3DA"/>
<ellipse cx="126.89" cy="52.5776" rx="4.60889" ry="4.60888" fill="#FFF3DA"/>
<ellipse cx="115.577" cy="54.0441" rx="6.07535" ry="6.07534" fill="#FFF3DA"/>
<ellipse cx="75.8224" cy="73.5768" rx="4.02993" ry="4.02992" fill="#FFF3DA"/>
<path d="M78.593 73.2184C78.5929 72.4372 77.8151 70.6481 75.4675 70.8745" stroke="#E9ECE5" stroke-width="1.04181" stroke-linecap="round"/>
<ellipse cx="164.599" cy="72.0611" rx="4.81838" ry="4.81838" fill="#FFF3DA"/>
<path d="M167.911 71.6325C167.911 70.6985 166.981 68.5593 164.174 68.8301" stroke="#E9ECE5" stroke-width="1.24564" stroke-linecap="round"/>
<ellipse cx="145.584" cy="35.5535" rx="3.0872" ry="3.0872" fill="#FFF3DA"/>
<path d="M147.707 35.2788C147.707 34.6803 147.111 33.3097 145.312 33.4832" stroke="#E9ECE5" stroke-width="0.798096" stroke-linecap="round"/>
<path d="M77.1296 44.1229C75.4087 44.615 74.0649 45.9922 73.8852 48.4017" stroke="#E9ECE5" stroke-width="1.60096" stroke-linecap="round"/>
<path d="M100.683 74.6251C100.575 76.4117 101.426 78.1373 103.638 79.1087" stroke="#E9ECE5" stroke-width="1.60096" stroke-linecap="round"/>
<path d="M140.802 46.8753C139.412 48.003 138.716 49.7968 139.495 52.0838" stroke="#E9ECE5" stroke-width="1.60096" stroke-linecap="round"/>
<path d="M123.522 63.9474C122.04 62.9428 120.122 62.7953 118.158 64.203" stroke="#E9ECE5" stroke-width="1.60096" stroke-linecap="round"/>
<path d="M166.293 55.8415C167.515 54.5335 167.958 52.661 166.871 50.5029" stroke="#E9ECE5" stroke-width="1.60096" stroke-linecap="round"/>
<path d="M99.734 57.7209C97.9484 57.5978 96.216 58.4351 95.2267 60.6396" stroke="#E9ECE5" stroke-width="1.60096" stroke-linecap="round"/>
<path d="M80.9745 143.836V145.33C80.9745 148.732 78.4545 151.252 74.5665 151.252C70.6425 151.252 67.7805 148.408 67.7805 144.7C67.7805 140.974 70.6605 138.148 74.4225 138.148C77.6445 138.148 79.7865 139.966 80.5605 142.054L77.7885 142.846C77.1945 141.712 76.2225 140.956 74.4585 140.956C72.2805 140.956 70.8045 142.648 70.8045 144.682C70.8045 146.644 72.1545 148.48 74.8005 148.48C76.6185 148.48 77.6085 147.436 77.8425 146.392L74.5305 146.41V143.836H80.9745ZM85.5254 143.062C86.0654 142.072 87.0554 141.514 88.4054 141.694V144.394C86.4614 144.07 85.5254 144.898 85.5254 147.166V151H82.6454V141.82H85.5254V143.062ZM93.7874 151.252C90.9254 151.252 88.8554 149.164 88.8554 146.41C88.8554 143.656 90.9254 141.568 93.7874 141.568C96.6494 141.568 98.7194 143.656 98.7194 146.41C98.7194 149.164 96.6494 151.252 93.7874 151.252ZM93.7874 148.66C95.1014 148.66 95.9294 147.706 95.9294 146.41C95.9294 145.114 95.1014 144.16 93.7874 144.16C92.4734 144.16 91.6454 145.114 91.6454 146.41C91.6454 147.706 92.4734 148.66 93.7874 148.66ZM104.739 151.252C101.877 151.252 99.8066 149.164 99.8066 146.41C99.8066 143.656 101.877 141.568 104.739 141.568C107.601 141.568 109.671 143.656 109.671 146.41C109.671 149.164 107.601 151.252 104.739 151.252ZM104.739 148.66C106.053 148.66 106.881 147.706 106.881 146.41C106.881 145.114 106.053 144.16 104.739 144.16C103.425 144.16 102.597 145.114 102.597 146.41C102.597 147.706 103.425 148.66 104.739 148.66ZM122.404 141.568C124.582 141.568 126.058 142.972 126.058 145.582V151H123.178V146.23C123.178 145.024 122.8 144.232 121.72 144.232C120.586 144.232 120.118 145.042 120.118 146.446V151H117.238V146.23C117.238 145.024 116.86 144.232 115.78 144.232C114.646 144.232 114.178 145.042 114.178 146.446V151H111.298V141.82H114.178V142.72C114.754 142.054 115.618 141.568 116.716 141.568C117.958 141.568 118.84 142.018 119.38 142.792C120.01 142.126 121 141.568 122.404 141.568ZM129.542 140.758C128.624 140.758 127.886 140.038 127.886 139.12C127.886 138.238 128.624 137.518 129.542 137.518C130.46 137.518 131.198 138.238 131.198 139.12C131.198 140.038 130.46 140.758 129.542 140.758ZM128.066 151V141.82H130.946V151H128.066ZM138.728 141.568C141.176 141.568 142.31 143.224 142.31 145.654V151H139.43V146.23C139.43 145.024 138.926 144.232 137.792 144.232C136.676 144.232 136.01 145.114 136.01 146.518V151H133.13V141.82H136.01V142.774C136.622 142.072 137.54 141.568 138.728 141.568ZM150.86 141.82H153.74V150.658C153.74 153.232 151.868 155.032 148.916 155.032C146.63 155.032 145.226 154.006 144.47 152.638L146.954 151.738C147.35 152.35 147.998 152.692 148.988 152.692C150.266 152.692 150.86 151.828 150.86 150.676V149.794C150.194 150.514 149.33 150.892 148.322 150.892C145.712 150.892 143.84 148.84 143.84 146.23C143.84 143.44 145.712 141.568 148.322 141.568C149.33 141.568 150.194 141.946 150.86 142.666V141.82ZM148.826 148.318C150.086 148.318 150.932 147.49 150.932 146.23C150.932 144.97 150.086 144.142 148.826 144.142C147.548 144.142 146.684 144.97 146.684 146.23C146.684 147.49 147.548 148.318 148.826 148.318Z" fill="black"/>
</svg>
