<svg width="219" height="38" viewBox="0 0 219 38" fill="none" xmlns="http://www.w3.org/2000/svg">
<g clip-path="url(#clip0_318_3861)">
<path fill-rule="evenodd" clip-rule="evenodd" d="M111.91 32.1064V9.17871H124.742V15.4592H118.829L118.833 17.5875H124.219L124.215 23.6164H118.833V25.826H124.934V32.1064H111.91Z" fill="black"/>
<path fill-rule="evenodd" clip-rule="evenodd" d="M130.106 32.1067V16.4113L126.214 16.6435V9.17896H140.717V16.6435L136.902 16.4152V32.1067H130.106Z" fill="black"/>
<path fill-rule="evenodd" clip-rule="evenodd" d="M148.904 26.5922V22.8115H150.403C150.983 22.8115 151.559 22.8889 151.959 23.3571C152.493 23.9763 152.546 24.9553 152.197 25.6828C152.043 26.0078 151.778 26.3019 151.436 26.4335C151.079 26.5651 150.687 26.5922 150.31 26.5922H148.904ZM148.901 17.9667V14.6891H149.992C150.595 14.6891 151.175 14.782 151.471 15.3779C151.72 15.8732 151.736 16.4962 151.551 17.0186C151.432 17.3514 151.198 17.6571 150.871 17.808C150.599 17.928 150.295 17.9667 150.003 17.9667H148.901ZM142.508 9.17871H150.829C151.805 9.17871 152.781 9.28319 153.737 9.49215C155.435 9.86751 156.853 11.1329 157.472 12.7697C157.925 13.9693 158.059 15.2889 157.906 16.562C157.752 17.7655 157.291 18.8683 156.369 19.6771C156.081 19.9363 155.812 20.0873 155.489 20.2498C155.866 20.4394 156.211 20.6329 156.557 20.8922C157.66 21.7203 158.443 22.9392 158.724 24.2974C159.208 26.6502 158.447 29.297 156.549 30.8178C156.039 31.228 155.458 31.5569 154.832 31.7465C153.979 32.0058 153.084 32.1025 152.193 32.1025H142.512V9.17871H142.508Z" fill="black"/>
<path fill-rule="evenodd" clip-rule="evenodd" d="M167.744 23.8101L169.127 16.8292L170.514 23.8101H167.744ZM166.457 29.2353L165.95 32.1066H158.647L165.236 9.17505H172.888L179.669 32.1066H172.347L171.717 29.2353H166.461H166.457Z" fill="black"/>
<path fill-rule="evenodd" clip-rule="evenodd" d="M187.629 19.3793V15.4594H188.824C189.22 15.4594 189.604 15.6064 189.861 15.9121C190.384 16.5274 190.526 17.5103 190.249 18.2649C190.096 18.6789 189.796 19.0465 189.381 19.2207C189.128 19.3252 188.847 19.36 188.574 19.3677L187.629 19.3793ZM180.898 32.1066V9.17505H189.481C190.726 9.17505 191.924 9.28727 193.046 9.85611C194.579 10.6378 195.866 11.9805 196.496 13.5981C197.072 15.0685 197.211 16.7209 197.034 18.2842C196.934 19.1742 196.734 20.072 196.331 20.8769C195.87 21.7863 195.094 22.5021 194.156 22.8852C193.976 22.9588 193.795 23.0284 193.615 23.0942L198.701 32.0989H190.753L187.633 24.3364V32.1027H180.902L180.898 32.1066Z" fill="black"/>
<path fill-rule="evenodd" clip-rule="evenodd" d="M199.968 32.1066V9.17501H206.58L210.994 17.8198C211.344 18.5047 211.678 19.1897 212.001 19.8862C212.231 20.4047 212.458 20.9233 212.681 21.4418C212.6 20.7182 212.523 19.9907 212.473 19.2709C212.404 18.3267 212.389 17.3903 212.393 16.4422V9.17114H219.004V32.1027H212.393L207.64 23.0516C207.168 22.1538 206.772 21.2212 206.361 20.2925C206.465 21.6237 206.58 22.9549 206.58 24.286V32.0988H199.968V32.1066Z" fill="black"/>
<path fill-rule="evenodd" clip-rule="evenodd" d="M100.416 19.4297V15.4633H101.696C102.449 15.4633 103.148 15.769 103.44 16.4965C103.693 17.1388 103.651 17.9012 103.325 18.5048C102.983 19.1394 102.291 19.4297 101.6 19.4297H100.413H100.416ZM93.6933 32.1067V9.17896H102.817C105.261 9.17896 107.627 10.216 108.941 12.3521C109.875 13.8651 110.294 15.6606 110.317 17.4329C110.336 19.2168 109.959 21.0743 108.991 22.595C107.927 24.2667 106.217 25.2148 104.235 25.2148H100.413V32.1067H93.6895H93.6933Z" fill="black"/>
<path d="M56.8582 38C56.9734 37.9497 57.1079 37.9264 57.2193 37.8529C57.446 37.702 57.6534 37.5395 57.8686 37.3576C58.199 37.0829 58.4717 36.6959 58.7406 36.2973C59.0441 35.8407 59.2209 35.5814 59.3553 35.0242C59.3822 34.9197 59.3592 34.7804 59.363 34.6759C59.363 34.556 59.29 34.5328 59.2247 34.6256C59.1863 34.6837 59.1556 34.7495 59.1287 34.8152C59.0557 34.9855 58.9788 35.1364 58.9135 35.3067C58.6485 35.8097 58.4717 36.0419 58.1644 36.4598C57.7879 36.9745 57.3615 37.3499 56.9235 37.7097C56.8774 37.7484 56.8313 37.7871 56.789 37.8374C56.7698 37.8568 56.7583 37.9032 56.7583 37.9342C56.7583 37.9535 56.7852 37.969 56.8006 37.9767C56.8159 37.9845 56.839 37.9767 56.8582 37.9767V37.9961V38Z" fill="#ECA925"/>
<path d="M59.8669 35.8871C59.8669 35.8445 59.8669 35.7787 59.8669 35.7207C59.8554 35.6472 59.7939 35.6356 59.744 35.6975C59.7017 35.7478 59.6633 35.8097 59.6326 35.8755C59.4597 36.2547 59.2446 36.5914 59.0064 36.901C58.8719 37.0751 58.7221 37.226 58.5799 37.3885C58.5377 37.4311 58.4954 37.4698 58.457 37.5201C58.4109 37.5781 58.3917 37.6478 58.4071 37.6981C58.4263 37.7639 58.4647 37.7794 58.5146 37.76C58.5684 37.7445 58.6184 37.7252 58.6683 37.6942C59.0256 37.4311 59.3521 37.1099 59.5865 36.6107C59.6749 36.4211 59.767 36.2431 59.8285 36.0419C59.84 35.9993 59.8554 35.9568 59.8708 35.891" fill="#ECA925"/>
<path d="M20.734 30.4774L18.7786 36.2819L0 29.8738L9.00126 3.12671L15.2979 5.27437L8.25212 26.2131L20.734 30.4774Z" fill="red"/>
<path d="M20.1724 25.5319C20.1724 19.3598 24.7786 14.6775 31.1483 14.6775C37.5179 14.6775 42.1242 19.3559 42.1242 25.5319C42.1242 31.7078 37.5179 36.3862 31.1483 36.3862C24.7786 36.3862 20.1724 31.7078 20.1724 25.5319ZM35.9159 25.5319C35.9159 22.6258 34.0757 20.4897 31.1483 20.4897C28.2209 20.4897 26.3807 22.6296 26.3807 25.5319C26.3807 28.4341 28.2209 30.574 31.1483 30.574C34.0757 30.574 35.9159 28.4341 35.9159 25.5319Z" fill="red"/>
<path d="M67.2802 16.3957L57.0342 36.0419L49.8616 35.3183L43.6841 14.0159L50.6992 14.724L54.1721 28.3723L60.2997 15.6914L67.2802 16.3957Z" fill="red"/>
<path d="M65.2402 25.6245C65.2402 19.4524 69.5237 14.7314 76.0547 14.7314C82.5858 14.7314 86.7502 19.4524 86.7502 25.3807C86.7502 26.1082 86.708 26.8319 86.5889 27.5207H71.4869C71.8864 29.4593 73.2887 31.073 76.5734 31.073C78.7363 31.073 79.9772 30.2255 80.6572 28.9756L86.4275 30.6706C85.3441 33.209 81.8981 36.4402 76.4504 36.4402C69.8003 36.4402 65.2363 32.0404 65.2363 25.6284M80.4958 23.651C80.2961 21.7974 78.6556 20.1412 76.0125 20.1412C73.3694 20.1412 71.7673 21.9174 71.483 23.651H80.4958Z" fill="red"/>
<path d="M61.8145 4.30662C61.8337 6.40784 60.2663 8.66385 57.4464 8.68706L54.6035 8.71415L54.6342 12.0924L51.8297 12.1194L51.7222 0.0538655L57.4848 -0.00030966C60.1894 -0.0235276 61.7991 2.22087 61.8145 4.30662ZM59.0638 4.34918C59.0561 3.43594 58.3646 2.58075 57.4387 2.59236L54.5497 2.61945L54.5804 6.16792L57.3504 6.14083C58.3953 6.13309 59.0715 5.26629 59.0638 4.35305" fill="black"/>
<path d="M62.3636 7.64639C62.3367 5.00729 64.15 2.97572 66.9391 2.9525C69.8281 2.92154 71.5185 4.92603 71.5454 7.45678C71.5454 7.77022 71.5339 8.07592 71.4801 8.37389L65.0336 8.43193C65.2142 9.25617 65.8212 9.9411 67.2234 9.92949C68.1454 9.91788 68.6756 9.55413 68.9599 9.02012L71.4301 9.71666C70.9768 10.8079 69.5169 12.1971 67.1927 12.2203C64.3498 12.2474 62.3866 10.3861 62.3636 7.64639ZM68.8715 6.74089C68.7755 5.94761 68.0724 5.24721 66.9391 5.25495C65.8135 5.26656 65.1335 6.03275 65.0221 6.77572L68.8715 6.74089Z" fill="black"/>
<path d="M78.5808 11.5818C77.847 11.8797 77.217 12.0268 76.4448 12.0307C74.3241 12.05 73.356 10.7498 73.3368 8.7492L73.3099 5.549L71.9576 5.5606L71.9346 3.14594L73.2869 3.13433L73.26 0.379138L75.9953 0.352051L76.0222 3.10724L78.3657 3.0879L78.3887 5.50256L76.0453 5.52191L76.0722 8.72598C76.0722 9.31417 76.3718 9.63922 76.9865 9.63148C77.3438 9.63148 77.6165 9.55409 77.9085 9.3993L78.577 11.5818H78.5808Z" fill="black"/>
<path d="M79.1108 9.38758L81.5542 8.64073C81.85 9.36436 82.5569 9.90611 83.5788 9.89837C84.2627 9.89063 84.6699 9.57719 84.6699 9.25214C84.6699 8.94256 84.3702 8.73747 83.8401 8.58656L81.7501 7.99063C80.4324 7.60753 79.5334 6.82199 79.5219 5.56049C79.5065 4.01263 81.1739 2.82464 83.1216 2.80916C85.008 2.78982 86.5178 3.6334 87.094 5.01487L84.7083 5.72301C84.3779 5.26252 83.8593 4.90652 83.1255 4.91039C82.6453 4.91039 82.2035 5.14257 82.2073 5.47149C82.2073 5.69593 82.3456 5.86232 82.7106 5.98228L84.7313 6.53564C86.1221 6.91487 87.3399 7.42179 87.3553 9.11283C87.3706 10.8039 85.7917 12.0538 83.4981 12.077C81.2622 12.0963 79.5565 10.8 79.1147 9.39144" fill="black"/>
<path d="M9.1616 1.06006C9.05403 1.12197 8.91957 1.1568 8.81969 1.24193C8.60839 1.40833 8.4163 1.59794 8.22037 1.79916C7.91687 2.10487 7.68636 2.51892 7.4597 2.94071C7.2023 3.42829 7.04863 3.70303 6.97179 4.268C6.96027 4.37635 6.991 4.51179 6.99869 4.62014C7.01021 4.73623 7.08705 4.74784 7.14083 4.6511C7.17157 4.59305 7.19846 4.5234 7.21767 4.45375C7.27145 4.27961 7.33676 4.12095 7.38286 3.94295C7.60184 3.41281 7.74783 3.16515 8.01291 2.72014C8.33562 2.16678 8.72364 1.7566 9.12319 1.35415C9.16544 1.31159 9.21155 1.26515 9.24612 1.21484C9.26149 1.19163 9.26533 1.14519 9.26533 1.1181C9.26533 1.09876 9.23844 1.08328 9.21923 1.07941C9.20002 1.07554 9.18081 1.07941 9.1616 1.07941C9.1616 1.07554 9.1616 1.0678 9.1616 1.06393" fill="#ECA925"/>
<path d="M6.37305 3.46319C6.37689 3.50576 6.38073 3.57154 6.39226 3.62959C6.40762 3.69924 6.47293 3.71085 6.51519 3.6412C6.54977 3.58315 6.58434 3.52124 6.61124 3.45158C6.7457 3.05688 6.92626 2.70087 7.12988 2.37195C7.24513 2.18621 7.37959 2.01981 7.50637 1.84568C7.54094 1.79537 7.57936 1.7528 7.61394 1.7025C7.6562 1.63671 7.66388 1.57093 7.64467 1.52063C7.62546 1.45871 7.57936 1.4471 7.53326 1.47032C7.48332 1.49354 7.43337 1.51676 7.39112 1.55545C7.05688 1.85342 6.76491 2.20555 6.58434 2.72796C6.51519 2.92144 6.4422 3.11105 6.39994 3.32001C6.38841 3.36258 6.38457 3.40902 6.37305 3.47093" fill="#ECA925"/>
<path d="M22.6549 20.4974C22.386 20.4123 22.1209 20.3155 21.875 20.1762C21.7406 20.0949 21.6061 20.0214 21.4717 19.9402C21.3218 19.8512 21.1797 19.7583 21.0299 19.6809C20.6841 19.499 20.396 19.2514 20.1386 18.965C19.8082 18.6051 19.4893 18.2336 19.1628 17.8699C19.1128 17.8157 19.0514 17.7654 18.9976 17.719C18.9668 17.6919 18.9246 17.6764 18.8862 17.6648C18.7747 17.63 18.7133 17.6648 18.6864 17.777C18.6749 17.8196 18.671 17.8583 18.671 17.897C18.6749 18.1562 18.7094 18.4116 18.7978 18.6554C18.8862 18.8876 18.986 19.1159 19.0782 19.3404C19.0821 19.352 19.0898 19.3597 19.0898 19.3713C19.0898 19.3791 19.0898 19.3907 19.0821 19.3984C19.0744 19.4023 19.059 19.4061 19.0552 19.4023C19.0168 19.3791 18.9745 19.3558 18.9438 19.3287C18.8631 19.263 18.7863 19.1856 18.7056 19.1198C18.6749 19.0927 18.6403 19.0695 18.6057 19.0501C18.5404 19.0192 18.4828 19.0385 18.4636 19.112C18.4444 19.1817 18.4367 19.2552 18.4444 19.3249C18.4751 19.5222 18.5404 19.708 18.648 19.8744C18.8055 20.1104 18.9707 20.3426 19.1897 20.5245C19.2895 20.6057 19.3933 20.687 19.497 20.7683C19.5277 20.7915 19.5623 20.8186 19.5892 20.8457C19.6046 20.8611 19.593 20.8882 19.57 20.8882C19.5124 20.8921 19.4586 20.8882 19.4048 20.8921C19.2434 20.9037 19.1628 21.0198 19.2127 21.1746C19.2319 21.2404 19.2703 21.3061 19.3087 21.3603C19.424 21.5151 19.5585 21.6505 19.7121 21.7666C20.0656 22.0336 20.4613 22.2155 20.8762 22.3587C20.9646 22.3896 21.0568 22.4245 21.149 22.4477C21.3603 22.5096 21.5677 22.587 21.7867 22.6257C21.9442 22.6528 22.1056 22.6721 22.2631 22.6992C22.3169 22.7108 22.3745 22.7186 22.4283 22.7263L23.3042 20.687C23.0852 20.6251 22.8701 20.5632 22.6549 20.4935" fill="black"/>
<path d="M44.537 25.4157C44.8136 25.2997 44.7483 25.3267 45.0441 25.2764C45.4167 25.2107 45.7894 25.1565 46.162 25.0946C46.3426 25.0675 46.5232 25.0559 46.696 25.0094C47.0917 24.905 47.4759 24.7811 47.8678 24.665C48.1252 24.5876 48.3595 24.4561 48.5862 24.3206C48.8628 24.162 49.101 23.953 49.2931 23.6938C49.4852 23.4345 49.6235 23.1481 49.7579 22.8618C49.7771 22.8269 49.7848 22.7883 49.8002 22.7496C49.8732 22.498 49.95 22.1807 49.9961 21.8131C50.0499 21.283 50.0653 20.9618 49.9846 20.5477C49.9577 20.4162 49.8809 20.3658 49.7502 20.3194C49.5658 20.2536 49.3853 20.184 49.2009 20.1143C49.0933 20.0756 48.9857 20.0292 48.8782 19.9944C48.5017 19.8667 48.1252 19.7351 47.7871 19.5184C47.6834 19.4487 47.5873 19.383 47.5067 19.2901C47.4298 19.2011 47.3568 19.1005 47.2761 19.0076C46.9995 18.7019 46.819 18.0441 46.6615 17.6648C46.6038 17.5294 46.5462 17.3978 46.4809 17.2663C46.3849 17.0689 46.285 16.8793 46.1851 16.6819C46.0506 16.4072 45.897 16.1828 45.7125 15.9351C45.5704 15.7455 45.3822 15.5868 45.2093 15.4282C44.998 15.2811 44.875 15.1612 44.7098 15.0722C44.4832 14.9483 44.3026 14.8361 44.0913 14.6891C44.0183 14.6388 43.9108 14.5962 43.8301 14.5536C43.6149 14.4414 43.4421 14.3911 43.2308 14.2673C43.1462 14.217 43.0041 14.1628 42.9081 14.128C42.789 14.0931 42.666 14.039 42.5469 14.0003C42.4394 13.9654 42.3279 13.9306 42.2204 13.8958C42.0014 13.8339 41.7824 13.7797 41.5711 13.7062C41.4021 13.6481 41.0602 13.6365 40.8834 13.6094C40.7912 13.594 40.6952 13.5862 40.5992 13.5746C40.4724 13.5553 39.8346 13.5553 39.6963 13.5785C39.5119 13.6056 39.3275 13.6172 39.1546 13.6443C39.0125 13.6597 38.8588 13.7333 38.6744 13.8107C38.467 13.9461 38.4401 14.0003 38.3095 14.1009C38.2173 14.1744 38.1097 14.3021 38.0175 14.4066C37.9445 14.5652 37.7524 14.7665 37.8523 14.9212C37.9675 15.1147 38.3479 15.1728 38.5822 15.2037C38.7935 15.2308 39.001 15.2695 39.2084 15.2773C39.5081 15.2889 40.311 15.3663 40.5953 15.4359C40.6376 15.4475 40.5377 15.5172 40.361 15.5713C40.1266 15.641 39.8884 15.7068 39.6502 15.7726C39.5619 15.7997 38.951 15.908 38.8704 15.9467C38.782 15.9854 38.6975 16.0086 38.6014 16.0047C38.467 15.997 38.3325 15.9931 38.198 15.9815C38.1097 15.9777 38.0252 15.9622 37.9445 15.9428C37.5411 15.9003 37.3721 15.8384 36.9495 15.7919C36.8073 15.7919 36.669 15.7648 36.5307 15.7494C36.3578 15.7339 36.1811 15.7145 36.0044 15.7145C35.8738 15.7107 35.7432 15.7261 35.6164 15.7455C35.4627 15.7687 34.9671 15.8074 34.8173 15.8422C34.4677 15.9235 34.1565 16.086 33.8837 16.3182C33.6686 16.5001 33.5111 16.7245 33.3574 16.9567C33.2921 17.0573 33.2691 17.1695 33.2691 17.2856C33.2652 17.4791 33.3344 17.599 33.5111 17.6687C33.6878 17.7422 33.8684 17.7964 34.0605 17.8119C34.241 17.8235 34.3332 17.8506 34.5138 17.8699C34.6098 17.8815 34.7212 17.8893 34.8173 17.897C35.0824 17.9202 35.3859 17.9938 35.7432 18.0402C35.9391 18.0866 36.0543 18.1292 36.1004 18.1447C36.1581 18.1872 36.1888 18.2414 36.1965 18.3304C36.208 18.5045 36.2157 18.5858 36.2234 18.7019C36.2042 18.9263 36.2003 18.9418 36.1197 19.0037C36.0159 19.1237 35.9813 19.1314 35.8392 19.2475C35.5895 19.3946 35.3436 19.4952 35.0363 19.6461C34.9287 19.6964 34.8135 19.7312 34.6982 19.7699C34.4485 19.8434 34.1949 19.9208 33.9567 20.0215C33.7839 20.095 33.5995 20.1608 33.4189 20.2188C32.9425 20.3736 32.4623 20.5245 31.9821 20.6716C31.863 20.7064 31.74 20.7412 31.6171 20.7644C31.2982 20.8302 30.9141 20.9695 30.4684 21.0779C30.1034 21.1862 29.9114 21.2365 29.5886 21.2868C28.8779 21.399 28.1672 21.5035 27.4603 21.608C27.176 21.6506 26.8917 21.6699 26.6036 21.6467C26.4115 21.6274 26.2156 21.6157 26.0158 21.6196C25.866 21.6235 25.7277 21.6003 25.5855 21.5693C25.4895 21.55 25.3896 21.5306 25.2897 21.5113C25.1514 21.4842 25.0093 21.4726 24.8748 21.4377C24.748 21.4029 24.6251 21.3681 24.4983 21.3333L23.6262 23.3726C23.8183 23.3997 24.0142 23.4151 24.2102 23.4229C24.5675 23.4384 24.9209 23.45 25.2743 23.5119C25.4818 23.5428 25.6931 23.5815 25.8775 23.686C25.9582 23.7363 26.0389 23.7905 26.1118 23.8524C26.181 23.9105 26.2079 23.9956 26.1848 24.0846C26.1541 24.2084 26.1042 24.3245 25.9889 24.4019C25.7469 24.5606 25.5087 24.7269 25.2628 24.8895C24.8594 25.1604 24.4253 25.3732 24.0258 25.6441C23.584 25.942 23.1422 26.2439 22.7541 26.6153C22.6082 26.7546 22.4698 26.9017 22.3508 27.0642C22.1817 27.2964 22.0165 27.5324 21.8552 27.7724C21.7322 27.962 21.6208 28.1632 21.544 28.376C21.4595 28.5966 21.5017 28.8017 21.5978 29.0029C21.6631 29.1306 21.7668 29.2196 21.8936 29.2699C22.0242 29.3202 22.1587 29.3357 22.297 29.3125C22.5198 29.2815 22.8118 29.1925 22.9885 29.0532C23.1806 28.8984 23.3458 28.7127 23.5033 28.5231C23.657 28.3335 23.7146 28.2716 23.9067 28.1245C23.972 28.0781 24.0565 28.02 24.118 27.9697C24.4138 27.7453 24.5867 27.664 25.0976 27.3893C25.5164 27.2654 25.939 27.1377 26.3616 27.0217C26.4192 27.0062 26.4807 26.9946 26.5383 26.9868C26.7112 26.9597 26.8879 26.9327 27.0608 26.9133C27.176 26.9017 27.2913 26.9017 27.4065 26.9133C27.5218 26.9249 27.5871 26.9946 27.6025 27.1107C27.6178 27.1997 27.6025 27.2848 27.5525 27.3544C27.4987 27.4202 27.4449 27.4899 27.3796 27.5441C27.2528 27.6485 27.1184 27.7491 26.9762 27.8343C26.6651 28.0316 26.3539 28.2251 26.0389 28.4186C25.7354 28.6005 25.428 28.7862 25.1168 28.9642C24.9363 29.0726 24.7557 29.1848 24.5905 29.3164C24.191 29.6375 23.8606 30.0245 23.5494 30.4269C23.3842 30.6359 23.2958 30.872 23.2536 31.1351C23.2267 31.2938 23.2536 31.4485 23.3035 31.5956C23.3765 31.7929 23.5187 31.8935 23.7223 31.9168C23.9797 31.9439 24.3946 31.8781 24.5943 31.7194C24.6981 31.6382 24.798 31.5375 24.8863 31.4369C25.063 31.2357 25.501 30.9958 25.743 30.8913C26.3039 30.6514 26.4 30.5972 27.0761 30.3921C27.4565 30.3263 27.6486 30.2257 28.0942 30.1329C28.4822 30.0671 28.6359 30.0168 29.0931 29.8968C29.3966 29.8039 29.6962 29.7691 30.0919 29.6685C30.526 29.5369 30.8872 29.4982 31.3213 29.3783C31.7362 29.2583 32.1549 29.1538 32.5699 29.0455C32.7619 28.999 32.9502 28.9487 33.1461 28.9178C33.4996 28.8559 33.8568 28.7978 34.2141 28.7436C34.3563 28.7243 34.4946 28.7088 34.6329 28.6972C34.9825 28.6701 35.3321 28.6237 35.6855 28.6237C35.8968 28.6237 36.0428 28.6121 36.3156 28.5966C36.5461 28.5734 36.5807 28.5927 36.865 28.585C37.0494 28.6082 37.2261 28.6043 37.4105 28.6121C37.6833 28.6198 37.9522 28.6314 38.2249 28.6546C38.6168 28.6817 39.001 28.7514 39.3775 28.8559C39.5119 28.8946 39.6502 28.941 39.7809 28.9836C39.9845 29.0494 40.1919 29.1113 40.3994 29.1809C40.4954 29.2119 40.5876 29.2467 40.6798 29.2815C41.0102 29.4092 41.3176 29.5795 41.6211 29.7614C41.767 29.8504 41.9169 29.9278 42.0706 30.0129C42.2895 30.129 42.52 30.2412 42.7352 30.365C42.9618 30.4889 43.1808 30.6166 43.3998 30.7481C43.7187 30.9377 44.0491 31.108 44.391 31.2589C44.7828 31.4292 45.1785 31.5685 45.6088 31.5724C45.7817 31.5762 45.9546 31.5917 46.1159 31.5298C46.2581 31.4795 46.4002 31.4253 46.5347 31.3634C46.8459 31.2202 47.038 30.9687 47.1378 30.6398C47.2185 30.3805 47.1455 30.1638 46.9304 29.9935C46.819 29.9045 46.696 29.8349 46.5654 29.7807C46.358 29.6995 46.1467 29.6375 45.9277 29.5988C45.7433 29.564 45.5704 29.5021 45.409 29.4015C45.2976 29.328 45.1785 29.2583 45.0556 29.1964C44.6292 28.9952 44.2296 28.7398 43.857 28.4496C43.8301 28.4302 43.807 28.4147 43.784 28.3992C43.588 28.2677 43.3883 28.14 43.1962 28.0007C43.0464 27.8962 42.9081 27.7801 42.7698 27.664C42.716 27.6214 42.666 27.5634 42.6545 27.4899C42.6507 27.4551 42.6699 27.428 42.7044 27.4396C42.7582 27.4551 42.8082 27.4744 42.8581 27.4976C43.2154 27.6756 43.5688 27.8575 43.9223 28.0355C44.2258 28.1864 44.5293 28.3451 44.8405 28.4883C45.29 28.6895 45.7433 28.8752 46.1966 29.0726C46.4502 29.1848 46.696 29.3125 46.9458 29.4247C47.2531 29.564 47.5489 29.7188 47.8716 29.8233C48.0906 29.8929 48.3134 29.9162 48.5401 29.8813C48.6784 29.862 48.8167 29.8426 48.9588 29.8272C49.0933 29.8117 49.2239 29.7768 49.3392 29.6917C49.5005 29.5795 49.6465 29.4479 49.7656 29.2893C49.8424 29.1887 49.9001 29.0764 49.9385 28.9526C50.0653 28.5618 49.877 28.1477 49.5005 28.0084C49.3968 27.9736 49.2892 27.9581 49.1778 27.9426C48.9665 27.9117 48.7591 27.8885 48.5516 27.8614C48.4248 27.8498 48.3057 27.8111 48.1866 27.7646C47.8985 27.7066 47.8793 27.6911 47.5604 27.5479C47.4567 27.5208 47.3568 27.4899 47.2646 27.4434C47.038 27.3312 46.8151 27.219 46.5846 27.1223C46.5577 27.1107 46.5308 27.0952 46.504 27.0797C46.0007 26.8282 45.1939 26.476 44.7483 26.1316C44.5216 25.9575 44.0529 25.6208 44.537 25.4235M41.9284 19.9324C41.8554 20.2033 41.6902 20.3929 41.4251 20.4742C41.3406 20.5013 41.2561 20.5168 41.1677 20.5206C41.1639 20.5245 41.1562 20.5284 41.1524 20.5322C41.0025 20.6174 40.845 20.6599 40.6721 20.6445C40.5338 20.6329 40.3955 20.6174 40.2611 20.6019C40.0728 20.5826 39.9153 20.5013 39.7732 20.3891C39.3852 20.0756 39.4466 20.1414 39.2392 19.7351C39.1623 19.5842 39.1201 19.4217 39.1009 19.2553C39.074 19.0386 39.0817 18.8257 39.074 18.609C39.074 18.4968 39.1085 18.3923 39.147 18.2917C39.1815 18.2105 39.2161 18.1331 39.2507 18.0518C39.2968 17.9396 39.3621 17.839 39.4581 17.7654C39.5542 17.6919 39.6541 17.6145 39.7616 17.5526C39.9268 17.452 40.1036 17.4094 40.2957 17.4404C40.3763 17.452 40.4532 17.4597 40.5377 17.4675C40.6683 17.4791 40.7912 17.51 40.895 17.5952C40.9142 17.6068 40.9372 17.6223 40.9564 17.63C41.1754 17.7577 41.3445 17.9357 41.4751 18.1524C41.4943 18.1795 41.5173 18.2066 41.5289 18.2337C41.5903 18.3691 41.648 18.5007 41.6941 18.64C41.8861 18.9031 41.986 19.1972 41.9976 19.5184C42.0052 19.6616 41.9707 19.7931 41.9284 19.9247M44.0452 19.6384C43.9108 19.5339 43.7801 19.4333 43.6534 19.3249C43.6034 19.2823 43.565 19.2282 43.5266 19.174C43.4459 19.054 43.3729 18.9302 43.2999 18.8064C43.2653 18.7406 43.2269 18.6709 43.2116 18.5935C43.177 18.4039 43.1424 18.2105 43.1309 18.0092C43.1194 17.7577 43.1808 17.5333 43.2884 17.305C43.4536 16.976 43.7148 16.7748 44.0567 16.6665C44.1297 16.6432 44.2066 16.6432 44.2834 16.651C44.4025 16.6626 44.5178 16.6858 44.6369 16.709C44.7444 16.7322 44.8405 16.7748 44.925 16.8522C44.9903 16.9102 45.0594 16.9567 45.1324 17.007C45.2439 17.0883 45.3284 17.1889 45.4052 17.2972C45.5627 17.5139 45.6626 17.7577 45.7548 18.0054C45.7625 18.0208 45.774 18.0402 45.7817 18.0557C45.8432 18.1679 45.8893 18.2917 45.9315 18.4117C46.0199 18.6555 46.0391 18.907 45.9507 19.1353C45.8777 19.4758 45.6011 19.6693 45.3092 19.6964C45.2285 19.7467 45.144 19.7931 45.0479 19.8241C44.8981 19.8744 44.7483 19.8551 44.5946 19.8357C44.3987 19.8086 44.1989 19.7661 44.0375 19.6384" fill="black"/>
<path d="M40.5191 20.1532C40.4846 20.099 40.4538 20.0448 40.4308 19.9868C40.3271 19.743 40.2579 19.4876 40.2579 19.2206C40.2579 19.0542 40.2925 18.8916 40.3693 18.7369C40.4538 18.555 40.5921 18.4273 40.7804 18.3615C41.13 18.2415 41.4681 18.3189 41.6947 18.6324C41.6448 18.4969 41.5833 18.3576 41.5257 18.2261C41.5103 18.199 41.4873 18.1719 41.4719 18.1409C41.3413 17.9242 41.1684 17.7501 40.9494 17.6185C40.9302 17.6069 40.9072 17.5953 40.8918 17.5798C40.7881 17.4908 40.6651 17.4637 40.5345 17.4521C40.4538 17.4483 40.3732 17.4405 40.2925 17.425C40.1004 17.3941 39.9198 17.4405 39.7585 17.5373C39.6547 17.5992 39.5549 17.6804 39.455 17.754C39.3551 17.8275 39.2936 17.9281 39.2437 18.0403C39.2091 18.1177 39.1784 18.199 39.1438 18.2764C39.1015 18.3808 39.0708 18.4815 39.0708 18.5975C39.0708 18.8104 39.0708 19.0271 39.0977 19.2438C39.1169 19.414 39.1553 19.5727 39.2322 19.7236C39.4435 20.1299 39.382 20.068 39.7662 20.3776C39.9122 20.4975 40.0697 20.5749 40.2579 20.5982C40.3924 20.6098 40.5307 20.6252 40.669 20.633C40.8419 20.6485 41.0032 20.6059 41.1492 20.5208C41.1569 20.5208 41.1607 20.5169 41.1684 20.5092C41.0339 20.513 40.9033 20.4898 40.7727 20.4124C40.6651 20.3505 40.5845 20.2538 40.5153 20.1493" fill="red"/>
<path d="M45.059 19.8242C45.1551 19.7932 45.2396 19.7507 45.3203 19.6965C45.1243 19.7159 44.9246 19.6617 44.7632 19.5301C44.3598 19.1935 44.2138 18.7601 44.3252 18.2454C44.3445 18.1409 44.3752 18.0403 44.4174 17.9397C44.5442 17.634 44.8631 17.4831 45.182 17.5643C45.4394 17.634 45.6314 17.781 45.7621 18.0055C45.6737 17.7578 45.57 17.514 45.4163 17.2973C45.3356 17.1851 45.2511 17.0845 45.1397 17.0071C45.0705 16.9568 45.0014 16.9065 44.9361 16.8523C44.8516 16.7749 44.7555 16.7324 44.6441 16.7091C44.525 16.6859 44.4098 16.6627 44.2907 16.6511C44.2177 16.6472 44.137 16.6472 44.0678 16.6704C43.7259 16.7749 43.4647 16.9761 43.2995 17.3089C43.1881 17.5372 43.1266 17.7617 43.142 18.0132C43.1535 18.2106 43.1842 18.404 43.2227 18.5975C43.2342 18.671 43.2726 18.7407 43.311 18.8104C43.3802 18.9381 43.457 19.058 43.5377 19.178C43.5723 19.2321 43.6145 19.2863 43.6645 19.3289C43.7912 19.4372 43.9219 19.5378 44.0563 19.6423C44.2215 19.77 44.4136 19.8087 44.6134 19.8397C44.767 19.859 44.9169 19.8784 45.0667 19.8281" fill="red"/>
<path d="M41.7831 19.0191C41.8062 19.2435 41.8254 19.468 41.7793 19.6885C41.7639 19.7543 41.7524 19.8201 41.737 19.8859C41.6794 20.0716 41.5795 20.2225 41.4259 20.3386C41.3413 20.4005 41.2568 20.4586 41.1685 20.5128C41.253 20.5089 41.3375 20.4934 41.422 20.4625C41.6871 20.3773 41.8561 20.1955 41.9291 19.9207C41.9714 19.7891 42.0021 19.6537 41.9944 19.5144C41.9829 19.1932 41.883 18.8991 41.6909 18.636C41.7332 18.7598 41.7639 18.8836 41.7793 19.0191" fill="black"/>
<path d="M41.7374 19.8898C41.7528 19.824 41.7643 19.7583 41.7797 19.6925C41.8296 19.468 41.8104 19.2436 41.7835 19.0191C41.772 18.8876 41.7336 18.7599 41.6952 18.6399C41.6952 18.6399 41.6952 18.6399 41.6952 18.6361C41.4685 18.3226 41.1304 18.2491 40.7847 18.3652C40.5964 18.431 40.4581 18.5587 40.3736 18.7405C40.3006 18.8915 40.2622 19.054 40.2622 19.2242C40.2622 19.4912 40.3275 19.7466 40.4351 19.9904C40.462 20.0485 40.4927 20.1027 40.5234 20.153C40.5926 20.2574 40.6733 20.3503 40.7847 20.4161C40.9115 20.4896 41.0421 20.5206 41.1765 20.5128C41.2649 20.4625 41.3494 20.4045 41.4339 20.3426C41.5876 20.2265 41.6875 20.0717 41.7451 19.8898" fill="black"/>
<path d="M45.8317 18.938C45.8163 19.0115 45.8048 19.0889 45.7894 19.1469C45.7241 19.3211 45.6396 19.4642 45.5013 19.5687C45.4437 19.6113 45.3822 19.6577 45.3169 19.6964C45.6127 19.6693 45.8816 19.4758 45.9585 19.1353C46.0468 18.907 46.0276 18.6593 45.9393 18.4117C45.897 18.2917 45.8471 18.1679 45.7894 18.0557C45.7779 18.0363 45.7702 18.0247 45.7625 18.0054C45.7664 18.017 45.7702 18.0325 45.7741 18.0441C45.874 18.3343 45.8932 18.6361 45.8317 18.938Z" fill="black"/>
<path d="M45.1824 17.5719C44.8636 17.4906 44.5447 17.6377 44.4179 17.9472C44.3757 18.044 44.3449 18.1446 44.3257 18.2491C44.2143 18.7637 44.3603 19.1971 44.7637 19.5377C44.9212 19.6692 45.1248 19.7234 45.3169 19.7041C45.3822 19.6615 45.4437 19.6189 45.5013 19.5764C45.6396 19.4719 45.7241 19.3287 45.7894 19.1546C45.801 19.0965 45.8163 19.0191 45.8317 18.9456C45.8932 18.6399 45.874 18.3381 45.7741 18.0517C45.7741 18.0401 45.7664 18.0246 45.7625 18.013C45.6319 17.7886 45.4398 17.6415 45.1824 17.5758" fill="black"/>
<path d="M43.0619 31.4489C43.0042 31.4179 42.9428 31.3985 42.8813 31.3713C42.7584 31.3713 42.6393 31.3713 42.5163 31.3713C42.1322 31.3791 41.7518 31.3869 41.3676 31.3946C41.3023 31.3946 41.2332 31.4062 41.1717 31.4179C41.0795 31.4412 41.0373 31.5187 41.0641 31.6079C41.0795 31.6622 41.1141 31.7049 41.1679 31.732C41.2255 31.7631 41.2908 31.7747 41.3561 31.7747C41.5175 31.7669 41.6788 31.7631 41.8363 31.7553C42.209 31.7437 42.5855 31.7553 42.9543 31.7049C43.0042 31.701 43.0542 31.6933 43.1003 31.6777C43.1656 31.6545 43.1848 31.5847 43.1464 31.5265C43.1195 31.4955 43.0888 31.4644 43.058 31.445" fill="#ECA925"/>
<path d="M32.217 15.6721C32.2362 15.6876 32.2592 15.6992 32.3053 15.7224C32.3668 15.7263 32.4513 15.7379 32.532 15.7379C32.9431 15.734 33.3426 15.6412 33.7383 15.5483C33.7729 15.5367 33.8113 15.5212 33.8497 15.5019C33.9074 15.4593 33.915 15.3896 33.8536 15.3471C33.8113 15.3161 33.7575 15.289 33.7037 15.2813C33.6154 15.2697 33.5232 15.2697 33.431 15.2736C33.0891 15.2929 32.751 15.3161 32.4091 15.3393C32.3361 15.3432 32.2669 15.3548 32.2093 15.4013C32.1171 15.4748 32.1171 15.6025 32.2093 15.6721" fill="#ECA925"/>
<path d="M31.1377 16.5627C31.2222 16.5666 31.3067 16.5627 31.3951 16.5627C31.6218 16.5511 31.8446 16.5317 32.0328 16.52C32.2057 16.52 32.3363 16.52 32.4669 16.52C32.5207 16.52 32.5784 16.5084 32.6283 16.4851C32.7205 16.4502 32.732 16.361 32.6629 16.2912C32.6091 16.233 32.5361 16.202 32.4593 16.1981C32.2633 16.1865 32.0674 16.1749 31.8715 16.1787C31.6294 16.1865 31.3913 16.2136 31.1454 16.1981C31.0916 16.1943 31.034 16.202 30.984 16.2175C30.9033 16.2447 30.8803 16.3145 30.911 16.3921C30.9533 16.489 31.0224 16.5627 31.1377 16.5705" fill="#ECA925"/>
<path d="M41.541 30.78C41.5947 30.78 41.6524 30.7684 41.7023 30.7451C41.7907 30.7063 41.806 30.621 41.7407 30.5473C41.6831 30.4891 41.614 30.4581 41.5371 30.4542C41.3412 30.4426 41.1414 30.431 40.9493 30.4348C40.7073 30.4426 40.4691 30.4697 40.2271 30.4542C40.1694 30.4504 40.1157 30.4581 40.0619 30.4736C39.9812 30.5008 39.9543 30.5706 39.9889 30.6482C40.0311 30.7451 40.1003 30.8188 40.2117 30.8266C40.3001 30.8305 40.3846 30.8305 40.4691 30.8266C40.6958 30.8149 40.9186 30.7955 41.1107 30.7839C41.2797 30.7839 41.4103 30.7839 41.541 30.7839" fill="#ECA925"/>
<path d="M33.219 30.1486C32.612 30.4233 31.9167 30.5742 31.1445 30.5742C28.2209 30.5742 26.3768 28.4343 26.3768 25.5321C26.3768 22.6298 28.1325 20.5983 30.937 20.4977L29.5847 14.7783C24.0372 15.4749 20.1724 19.8747 20.1724 25.5321C20.1724 31.7042 24.7786 36.3865 31.1445 36.3865C32.3623 36.3865 33.511 36.2123 34.5752 35.895L33.219 30.1486Z" fill="red"/>
<path d="M49.2546 10.9703C49.3699 10.5408 49.197 10.208 48.8013 10.0958C48.5362 10.0184 48.3134 10.1384 48.1174 10.2893C47.9599 10.4092 47.8331 10.564 47.6833 10.7111C47.6564 10.6685 47.618 10.6143 47.5873 10.5601C47.4528 10.3357 47.3145 10.119 47.0802 9.98357C46.8304 9.84039 46.5077 9.89844 46.3349 10.1229C46.1697 10.3434 46.162 10.5911 46.235 10.8465C46.3464 11.2451 46.5846 11.574 46.8458 11.8797C46.9111 11.961 46.9841 12.0345 47.0571 12.108C47.1762 12.2241 47.2991 12.3363 47.4221 12.4524C47.4835 12.5105 47.5604 12.5298 47.6372 12.4795C47.9714 12.2589 48.3172 12.05 48.6399 11.81C48.928 11.5972 49.1586 11.3263 49.2546 10.9665" fill="black"/>
<path d="M47.7804 14.4916C47.9341 14.2439 47.888 14.0001 47.6613 13.8531C47.5038 13.7525 47.3463 13.7873 47.1926 13.8453C47.0735 13.8879 46.9621 13.9653 46.8392 14.0272C46.8277 13.9924 46.8161 13.9537 46.8046 13.915C46.7623 13.7486 46.7162 13.5861 46.5933 13.4545C46.4627 13.3191 46.2514 13.292 46.0977 13.4042C45.9517 13.5087 45.9018 13.6635 45.8979 13.8376C45.8979 14.1085 45.9786 14.3639 46.09 14.6077C46.1169 14.6696 46.1477 14.7315 46.1822 14.7895C46.2322 14.8863 46.2937 14.9791 46.3474 15.0798C46.3743 15.1301 46.4204 15.1533 46.4742 15.1378C46.7278 15.0643 46.9852 14.9946 47.231 14.9095C47.4539 14.8321 47.6498 14.7044 47.7804 14.4954" fill="black"/>
</g>
<defs>
<clipPath id="clip0_318_3861">
<rect width="219" height="38" fill="red"/>
</clipPath>
</defs>
</svg>
